<?xml version="1.0" encoding="UTF-8"?>
<svg id="Layer_1" xmlns="http://www.w3.org/2000/svg" version="1.1" viewBox="0 0 712.97 752.97">
  <!-- Generator: Adobe Illustrator 30.5.1, SVG Export Plug-In . SVG Version: 2.1.4 Build 3)  -->
  <defs>
    <style>
      .st0 {
        fill: #2e2a6b;
      }
    </style>
  </defs>
  <path class="st0" d="M397.26,86.3l3.27-29.65c1.77-16.01-1.1-33.46-16.98-36.38-3.49-.64-9.16-1.15-12.72-.09-10.6,3.13-16.7,12.44-18.23,22.96l-4.32,29.59-4.92,35.96-4.03,31.07-6.88,52-8.68,68.2-1.66,13.44c-.64,5.14-1.41,10.47-3.99,15.25-3.65,6.75-11.23,9.19-19.05,7.91-5.86-.96-12.44-6.23-13.81-13.89-2.05-11.42-3.41-23.06-4.87-34.91l-4.95-40.13-12.21-101.81c-2.2-18.35-3.79-39.15-23.34-38.15-9.08.46-16.5,6.89-17.91,16.8-.79,5.55-1.68,12.33-1.27,17.97l.9,12.3.97,13,.89,12,1.37,18.46,2.02,27.21,1.96,23.75,1.03,15.17,3.88,46.95.86,10.45.92,11.09.25,7.84c.14,4.45,1.92,9.37,1.33,13.54-.93,6.67-3.08,11.74-7.95,15.03s-11.77,4.43-17.13,1.61c-2.86-1.51-7.78-5.39-9.1-8.77l-48.39-124.32c-3.91-10.04-8.33-23.96-19.65-23.97-3.84,0-8.3,2.4-10.72,5.75-4.67,6.45-4.84,14.51-2.79,22.17l10.18,37.96,24.68,87.28c8.52,30.13,14.12,59.83,16.67,91.04l1.2,14.7,1.38,15.9c3.03,35.03,11.99,68.43,24.74,101.23,12.75,32.8,12.46,50.47,5.53,84.14l-4.79,23.26-15.44,73.59-4.25,18.04c-1.14,4.85-9.35,4.96-13.01,2.88-4.76-2.71-4.83-7.64-3.74-12.87l25.62-122.2,1.02-8.9.95-10.95c-.08-13.74-4.05-26.24-8.96-38.98-11.88-30.85-21.44-61.91-24.75-94.98l-3.72-37.25-1.15-13.81c-1.53-18.34-3.7-36-8.54-53.82l-18.33-67.55-18.2-63.84c-3.43-12.03-6.9-23.76-6.57-36.06.35-12.91,5.47-24.96,16.87-31.35,13.63-7.64,29.81-4.46,39.56,6.43,7,7.81,10.12,16.83,13.89,26.48l44.78,114.64c.53-4.68.09-9.71-.36-14.95l-1.02-12-.96-12-1.07-14-.98-11.99-1.03-12-.9-11-1.08-15.02-.95-13-1.03-14-1-13-1.02-12.99-.95-12.02-1.05-14.91-.95-15.1c-.54-8.49-.65-17.22.19-25.44,1.9-18.73,16.08-33.06,34.32-34.65,17.93-1.57,32.69,7.97,39.01,24.5,2.93,7.65,3.86,15.95,4.87,24.17l1.66,13.47,19.92,163.8,13.78-104.7,3.97-30.15,5.02-37.99,5.05-36.95,1.81-14.09c2.54-19.8,7.64-35.68,25.09-46.06,6.88-4.09,16.88-5.2,25.25-4.32,21.01,2.22,33.41,17.24,36.51,38.05.8,5.35,1.71,9.82.3,15.47l-.74,8.68-4.53,43.18-1.78,16.04-3.9,32.41-.78,7.77-3.7,31.5-.27,6.12-.96,7.5-2.81,28.24-1.99,20.32-2.49,26.51,6.67-18.71,40.69-130.22,5.7-18.35,7.31-23.59c3.26-10.53,7.24-20.83,15.42-28.58,11.08-10.5,26.71-13.25,40.9-7.76,18.06,6.99,27.2,27.08,24.74,45.01l-1.97,14.37-3.63,16.48-22.07,85.85-22.82,87.18c-7.79,29.76-11.3,61.03-9.63,91.56.28,5.19,2.05,12.61,6.4,15.35,9.71,6.12,24.18-9.74,32.54-19.65l32.44-38.45c8.13-9.63,17.61-17.29,28.2-23.88,19.36-12.07,45.56-16.23,63.56-2.63,6.16,4.65,10.68,11.51,11.98,19.03,3.53,20.42-10.31,34.49-22.92,50.31-23.05,28.92-44.12,58.31-64.84,89.01-36.67,54.35-53.34,70.54-101.37,112.55l-13.99,12.24-12.99,12.92c-9.07,9.02-14.26,20.68-16.82,33.2l-4.1,20.01-7.31,42.19-3.99,26.29c-.97,6.38-5.56,9.9-11.54,8.87-6.35-1.09-8.15-7.06-7.12-13.26l3.02-18.29,4.4-25.56,5.12-29.82,4.65-20.39c4.02-17.62,14.42-32.8,28.1-44.89l46.7-41.26,25.06-24.89,7.64-8.43c17.14-18.91,30.65-39.72,45.07-60.92,22.57-33.17,45.6-64.92,71.14-95.68,5.79-6.97,10.35-18.11,6.16-24.12-9.23-13.23-31.09-9.11-46.03.15-11.82,7.32-21.39,16.88-30.35,27.62l-25.93,31.1c-13.88,16.64-32.3,33.89-53.53,24.96-10.34-4.35-17-18.45-17.77-29.11l-.67-9.32-.05-21.85.97-15.05c.78-12.13,2.54-23.9,5.23-35.74l3.48-15.32,16.33-62.74,6.04-23.05,18.83-73.07c3.7-14.36,7.01-27.87,9.51-42.44,1.34-7.83.03-15.87-4.96-22.74-6.28-8.66-20.94-9.71-28.7-2.01-5.97,5.92-8.46,13.76-10.85,21.47l-9.23,29.77-18.3,58.47-2.93,9.26-19.35,61.92c-3.72,11.92-6.8,23.67-11.4,35.04-3.51,8.68-12.18,12.4-21.07,11.27-7.48-.95-13.02-7.48-14.2-14.89-.77-4.86-.45-9.31,0-14.14l1.22-13,3.15-30.09,5.03-47.92,2.93-25.08,7.94-72.35Z"/>
  <path class="st0" d="M5.52,394.06c-4.02-17.77-6.77-34.67-4.94-52.29l1.02-9.87,2.18-14.02c1.6-10.28,5.49-21.41,9.41-31.16,2.05-5.1,6.63-7.77,11.36-6.59,4.42,1.1,8.62,6.45,6.64,11.71-5.83,15.46-10,30.6-11.41,47.37-3.22,38.52,9.53,86.14,36.82,114.21,3.74,3.85,5.36,9.29,1.62,13.76-3.23,3.86-9.94,5.11-14.13.65-19.35-20.6-32.2-45.6-38.57-73.76Z"/>
  <path class="st0" d="M656.49,527.1c-.09-5.19,3.8-8.26,6.59-11.71,14.83-18.34,24.27-40.19,28.54-63.45l3.26-23.91c.88-6.46.54-12.84-.19-19.32l-1.65-14.75c-.7-6.29-2.84-12.43-1.07-18.64.94-3.28,5.13-4.7,7.89-4.8s7.2,1.21,8.25,4.44c2.87,8.87,4.77,17.84,4.79,27.22l.07,30.28c.04,16.75-4.33,32.34-9.69,48.16-6.52,19.25-16.36,36.14-29.36,51.74-2.66,3.19-6.42,4.25-10.77,3.14-2.76-.71-6.58-3.93-6.66-8.4Z"/>
  <path class="st0" d="M557.89,238.7l11.21-19.06c7.55-15.57,12.07-31.67,12.32-48.88.19-12.85-.45-24.95-3.85-37.2-1.39-4.99.98-10.34,5.45-11.57,4.98-1.37,10.76.22,12.3,5.67,11.28,39.92,4.03,84-19.95,118.08-2.99,4.25-6.95,6.41-12.17,4.44-3.48-1.32-8.16-6.62-5.31-11.48Z"/>
  <path class="st0" d="M94.24,412.19c-4.64,4.7-12.05,3.04-15.69-1.69-11.42-14.88-18.23-32.04-20.48-50.72-1.89-15.73,1.44-30.32,5.64-45.55,1.13-4.1,3.18-7.96,6.66-9.06,4.46-1.41,9.74-.66,11.95,3.42,2.57,4.73.28,9.29-1.27,13.91-9.16,27.36-5.32,53.94,12.71,76.76,2.82,3.57,4.25,9.1.47,12.93Z"/>
  <path class="st0" d="M605.95,514.46c-1.07-2.19-.73-6.99-.4-9.46l13.87-14.14c11.85-12.09,16.99-28.19,21.88-44.12,1.2-3.91,6.96-4.65,10.13-3.84,2.66.68,7.33,4.14,6.78,7.81-3.17,21.09-13.45,39.75-27.41,55.42l-6.98,7.13c-2.27,2.32-5.54,5.05-8.11,5.44-3.21.48-8.02-.69-9.75-4.24Z"/>
</svg>