<?xml version="1.0" encoding="UTF-8"?>
<svg id="Layer_1" xmlns="http://www.w3.org/2000/svg" version="1.1" viewBox="0 0 842.74 759.41">
  <!-- Generator: Adobe Illustrator 30.5.1, SVG Export Plug-In . SVG Version: 2.1.4 Build 3)  -->
  <defs>
    <style>
      .st0, .st1 {
        fill: #2e2a6b;
      }

      .st0, .st2 {
        stroke: #2e2a6b;
        stroke-miterlimit: 10;
      }

      .st2 {
        fill: none;
        stroke-width: 23px;
      }
    </style>
  </defs>
  <g id="Generative_Object">
    <g>
      <path class="st1" d="M805.38,255.98c-13.25-15.46-28.11-27.42-47.12-35.42,3.49-74.52-50.85-141.37-125.26-147.04-7.22-13.25-15-24.86-25.93-34.79-21.53-21.05-48.18-33.52-78.52-35.91-39.17-3.95-76.54,8.19-105.58,35.66C401.65,15.87,375.31,3.73,345.53.72c-46.89-4.72-92.62,13.98-121.48,51.79C127.05,44.72,52.65,125.47,59.48,221.4c-10.81,5.74-19.33,12.16-26.99,21.14C-27.32,312.76-1.66,436.47,85.71,474.8c28.35,50.84,89.96,61.44,142.83,43.67,16.12,15.03,34.96,23.21,56.3,25.85,4.42,11.58,9.52,21.91,17.35,31.3,18.8,21.05,43.76,33.46,72.02,36.69,66.45,7.57,101.21,71.11,107.11,133.66.79,8.43,8.25,13.44,16.29,13.44l51.6-.04c8.25.46,16.15-5.6,16.59-14.32,1.28-25.35-.66-49.99-3.47-76.28,23.11,5.33,45.91,6.32,69.13,2.1,23.37-3.33,43.71-12.86,62.41-27.28,26.31-22.01,39.1-55.59,36.24-90.15,66.72-8.15,108.88-62.09,96.47-129.18,27.88-55.22,18.96-121.43-21.22-168.29h.02ZM806.25,412.5c-2.58,5.13-4.67,9.93-3.02,15.93,13.9,50.48-26.26,97.73-79.4,101.61-23.46,1.71-46.54-3.1-66.69-16.76,12.58-21.28,14.23-46.95,1.86-68.42-11.8-20.48-33.56-32.21-57.01-32.88-7.32-.22-11.42,5.45-11.4,11.33.04,7.58,5.33,10.37,13.03,10.72,13.74.63,26.31,7.9,33.64,17.7,8.49,11.34,11.12,25.61,6.34,39.15-5.48,15.52-19.8,27.07-35.91,29.63-15.72,2.49-30.6-1.71-43.38-10.17-5.84-3.86-12.22-1.58-16.44,3.66-17.62,21.87-45.07,30.44-72.37,23.29-6.53-1.71-12.81,2.02-14.15,8.01-1.55,6.93,3.7,11.53,10.49,13.26,31.96,8.18,64.09.53,87.8-23.99,26.54,12.85,56.2,13.43,80.58-3.27,19.94,12.99,41.77,20.99,65.81,22.57,4.58,36.75-15.28,70.27-49.97,84.88-40.28,16.98-99.82,15.37-130.84-17.32-4.24-4.47-11.01-3.56-14.43-.02-4.84,5.01-2.42,10.6,1.8,15.43,6.81,7.78,12.91,15.32,23,20.3,4.77,25.91,7.03,51.56,6.9,78.49l-38.82-.05c-7.67-70.57-52.07-139.77-125.66-147.35-32.18-3.32-61.15-22.29-71.21-53.94-2.37-7.46-4.79-13.77-14.23-13.95-25.03-.46-49.7-14.15-61.21-36.67-6.5-12.73-6.69-27.06-.17-39.72,5.64-10.94,17.84-19.27,32.01-20.75,6.09-.63,11.33-2.73,12.4-8.91.87-5.04-1.78-13.03-8.86-13.1-27-.28-51.84,17.73-59.56,43.53-5.42,18.15-1.65,35.66,6.22,52.69-26.52,7.68-54.44,6.75-78.2-5.87-14.61-7.76-27-20.57-30.58-36.88-7.32-33.49,16.16-65,49.27-70.34,6.61-1.06,11.05-6.38,10.39-13.01-4.47-44.06,30.68-83.43,74.74-84.11,6.41-.1,10.17-5.22,10.37-10.74.18-5.05-2.77-11.54-9.13-11.54-54.84.06-97.97,44.17-97.92,98.74-36.66,10.34-62.17,42.98-62.02,81.02-12.75-8.84-23.84-18.74-32.41-31.82-20.18-30.18-28.68-65.91-21.69-101.64,7.21-36.77,31.12-75.55,70.68-72.21,19.15,1.62,32.59,12.12,38.34,3.68,11.64-17.12-27.12-26.89-52.13-26.57-4.35-80.75,63.29-148.88,142.83-138.92,9.32,1.16,12.37-2.74,17.15-9.3,39.84-54.63,125.78-58.15,164.48-8.79,3.45,4.41,3.33,11.48,3.32,16.91l-.05,41.31c-.01,6.47,4.46,11,9.84,11.97,6.09,1.1,12.88-2.61,12.92-9.73l.29-47.8c.05-8.68,4.13-14.35,10.46-19.84,23.52-20.44,54.56-28.97,85.86-24.6,35.39,4.94,65.8,25.99,81.36,58.22,2.73,5.64,4.55,11.42,12.46,11.56,65.78,1.11,115.19,61.31,110.37,128.85-.57,7.95,2.4,12.58,9.55,15.12,26.14,9.32,45.41,29.03,58.56,53.05,20.32,37.12,22.86,80.33,3.73,118.38h0Z"/>
      <path class="st2" d="M383.96,539.79c-4.51,5.87-11.87,4.75-15.61,2.68-5.96-3.31-7.12-8.93-5.56-15.58l35.49-151.23-81.1-.14c-4.77,0-8.42-3.73-9.99-6.88-2.13-4.28-2.14-9.29,1.2-13.63l100.62-131.1,69.81-90.14c3.85-4.97,8.96-7.52,14.8-5.95,4.18,1.12,10.82,6.48,9.31,12.92l-35.06,149.6,86.76.56c4.82.03,6.98,6.55,7.71,9.67.93,3.99-1.14,8.91-3.96,12.57l-83.74,108.53-90.69,118.13h0Z"/>
      <path class="st0" d="M734.01,371.95c1.23-41.17-27.55-74.02-67.62-78.34-6.05-.65-9.88-5.87-9.69-12.01,1.28-40.67-31.68-73.16-72.43-71.41-5.95.26-10.64-3.91-11.47-8.65-.96-5.49,1.39-10.69,7.3-12.51,23.88-2.6,47.64,4,65.55,19.39,19.69,16.92,31.66,39.1,31.94,64.87,47.99,8.21,80.47,51,75.77,99.52-.6,6.24-3.61,10.7-9.77,10.67-5.39-.03-9.81-4.2-9.6-11.53h.02Z"/>
      <path class="st0" d="M344.89,185.38c-27.51-32.16-75.51-32.78-103.85-1.55-4.65,5.12-10.92,6.91-15.96,2.54-5.49-4.77-4.09-11.52.59-16.71,16.9-18.71,39.02-31.23,65.04-31.76,28.24-.58,54.96,12.97,71.27,35.58,3.26,4.52.54,11.35-3.2,13.8-3.46,2.27-9.78,2.91-13.9-1.9h.01Z"/>
    </g>
  </g>
</svg>