<?xml version="1.0" encoding="UTF-8"?>
<svg id="Layer_1" xmlns="http://www.w3.org/2000/svg" version="1.1" viewBox="0 0 1000 1000"><g transform="translate(0.00,150.05) scale(0.970412)">
  <!-- Generator: Adobe Illustrator 30.5.1, SVG Export Plug-In . SVG Version: 2.1.4 Build 3)  -->
  <defs>
    <style>
      .st0 {
        fill: #2e2a6b;
      }
    </style>
  </defs>
  <path class="st0" d="M542.65,329.48l-53.27-14.16c-8.79-2.34-16.11-6.33-20.46-14.74-7.66,5.85-16.58,6.04-25.43,3.6l-59.71-16.4c-6.2-1.7-10.37-6.92-14.09-12.08-15.21.03-29.79,4.6-43.49,11.23-27.69,13.4-49.25,35.78-60.64,64.29-3.82,9.49-4.71,18.77-2.92,28.71,9.61,19.17,23.48,34.69,40.81,47.21,4.04,2.92,6.55,6.33,5.25,11.04-1.15,4.17-6.78,7.98-11.86,4.95-4.69-2.79-9.92-7.01-14.17-11.13l-18.36-17.77c-.62,15.08-4,29.59-8.97,43.8-1.78,5.08-6.84,6.93-11.42,5.2-5.1-1.92-5.98-7.32-3.97-12.49,11.44-29.4,13.49-71.22-13.16-89.84-23.38-16.34-56.6-12.42-78.49,4.11-8.71,6.58-11.45,17.17-11.56,27.68-.13,12.2,1.23,23.64,4.93,35.16,1.54,4.8-.8,8.46-5,10.18-3.02,1.24-8.76.73-10.31-3.91-3.22-9.61-4.57-20.08-5.75-30.44-.6-5.31,0-9.82.02-15.13l.04-7.1c-17.65,10.72-34.06,22.23-50.87,33.72-3.91,2.67-9.56-.1-11.26-3.26-1.95-3.63-1.78-8.16,2.68-11.15l63.16-42.45c10.1-6.79,14.75-18.47,16.14-30.08,1.92-16.07-7.86-31.03-23.06-37.17s-32.4-6.1-47.76-.62c-17.96,6.4-32.21,18.71-42.87,34.15-2.66,3.86-8.62,4.38-11.87,1.73-3.82-3.12-3.99-8.36-1.04-12.77,7.91-11.86,18.51-21.41,30.22-29.7-13.52-4.33-25.69-9.51-37.02-17.32-4.01-2.76-5.37-6.4-3.81-11.25.95-2.96,6.58-6.84,10.63-4.27,21.05,13.39,41.06,21.2,66.81,18.22,4.62-.54,9.78-2.85,13.96-4.79,13.1-6.07,23.15-17.02,25.05-31.82,2.76-21.47-10.33-45.08-24.49-61.22-9.79-11.15-23.32-17.33-38.43-15.59-17.74,2.05-35.16,12.66-51.57,9.65-4.79-.88-5.86-6.79-5-9.61,1.69-5.53,4.6-5.72,9.69-6.33,26.09-3.16,45.02-18.39,74.64-6.4-2.63-18.45-6.25-37.59-22.47-48.64-2.77-1.88-5.14-5.3-4.83-8.12.41-3.73,2.71-7.34,5.84-8.13,3.58-.91,7.52.6,10.21,2.94,9.32,8.09,18.78,19.89,21.52,31.61l5.32,22.75c2.03,8.67,4.18,17.9,10.28,24.86,27.63,13.35,60.34,2.33,70.09-28.29,9.62-30.21-.89-68.97-26.06-90-3.77-3.16-6.86-6.62-4.84-11.32,1.57-3.66,6.18-8.39,10.91-5.52,6.69,4.06,11.95,10.54,17.15,16.72,12.4,14.75,19.53,32.78,21.65,52.16,1.4,12.85,4.98,25.52,14.37,34.52,10.14,9.71,24.08,13.01,36.83,7.78,14.13-5.79,25.85-18.52,25.83-33.54v-9.45c-.04-21.33-18.15-37.11-17.04-64.2.33-8.06,2.56-15.58,5.1-22.86,1.77-5.05,6.27-7.2,10.47-6.13,4.78,1.22,7.88,6.19,5.63,11.38-14.12,32.47,7.29,44.22,11.59,73.2l12.74-15.2,20.67-21.25c3.35-3.44,7.01-4.77,11.33-2.9,2.82,1.22,6.98,7.79,3.53,11.39l-25.05,26.18c-7.99,8.35-14,17.42-19.71,27.43-7.9,13.85-10.16,29-10.03,45.14.39,46.57,42.16,78.5,87.46,84.19,5.35-10.76,18.33-16.29,28.97-13.33l55.43,15.41c9.26,2.57,17.8,6.14,21.73,16.26,5.66-4.03,12.59-7.19,19.72-5.28l66.21,17.68c7.07,1.89,11.1,9.74,14.3,14.95,6.04-4.24,13.76-7.62,21.54-5.71l60.02,14.73c9.24,2.27,14.13,11.36,16.83,19.53,14.3,5.05,29.84,9.97,42.69,18.97,16.02,9.77,28.89,22.04,39.96,36.97,17.89,8.52,34.68,17.21,51.16,27.85,15.53,10.32,29.32,21.54,42.7,34.35l10.14,9.7c9.04,8.65,19.43,15.03,30.11,21.29,7.53-7.05,17.95-5.68,23.55,2.51,4.93,7.21,3.25,17.33-1.86,24.27-5.74,7.79-16.37,10.78-24.05,4.38-4.73-3.94-6.04-10.38-5.2-16.49l-8.01-5.11c.23,9.91-.35,19.25-2.87,29.35,8.79,5.04,12.29,16.67,5.56,24.43s-17.79,7.73-26.53,4c-7.25-3.1-10.99-10.57-10-17.75,1.07-7.81,8.29-11.64,15.62-13.66,6.57-15.69,2.02-35.53-10.05-48.14-13.83-14.45-28.43-26.15-44.81-37.38l-27.98-16.73-1.73-1.02c-.29-.17-.3,1.35-.3,1.84,9.26,19.53,15.29,39.54,17.87,61.12l-.14,33.86-1.13,10.82-.52,6.35c-.26,3.2,12.65,4.18,14.22,15.31.7,4.97-.36,10.38-5.26,13.77-10.5,7.26-25.38,7.09-35.68-.4-4.35-3.16-6.77-8.22-6.29-13.09s3.88-9.68,8.81-11.79l8.74-3.74,1.95-18.5-.05-31.37c-.02-13.51-4.3-26.28-9.44-39.2-3.33,11.51-7,21.93-15.11,30l-16.41,16.35-10.46,9.7c-11.51,10.67-18.81,24.86-21.75,40.13,9.88,3.96,16.34,11.05,13.97,20.28-2.55,9.96-14.64,13.23-26.37,12.69-10.48-.49-20.05-5.96-21.25-15.44-.66-5.19,2.07-10.82,7.28-14.04l10.68-4.56c3.06-15.62,9.35-30.25,19.87-42.79l17.84-17.9,9.6-8.8c18.4-16.87,25.04-45.42,10.1-67.02-16.87-24.38-43.26-39.83-71.47-47.76-.76,8.69-4.92,15.03-10.36,19.36-6.24,4.97-14.87,5.91-22.59,4l-54.46-13.5c-9.13-2.26-15.91-7.79-19.45-17.01-7.31,6.45-16.28,7.57-26.06,4.97ZM246.56,356.56c7.1-25.96,21.37-45.96,40.14-63.23,21.92-20.13,49.93-32.09,79.46-35.04l1.71-1.08c.09-.06-.86-.91-1.29-1.32-22.67-3.94-43.69-12.65-61.39-27.41l-6.67-6.28-7.48-7.73c-16.3-21.25-22.53-42.56-22.34-69.18-23.97,17.27-54.61,12.19-71.63-11.24-9.63,34.65-39.55,52.53-73.76,48.08,14.5,26.85,19.85,57.16.39,80.45-2.65,3.29-5.56,5.97-9.48,9.45,31.48,9.01,49.34,36.2,40.23,69.36,33.42-13.02,67.99-11.05,92.1,15.17ZM449.02,288.97c6.79,1.87,12.17-.83,13.8-7.55l2.93-12.07c2.22-9.14-9.1-10.88-17.44-13.15l-50.25-13.66c-5.87-1.59-10.38,2.13-11.78,7.5l-3.1,11.9c-1.35,5.18,2.55,9.59,7.64,10.99l58.19,16.03ZM559.67,311.13l4.03-12.87c1.01-3.22,1.09-6.35-.51-9.36-1.01-1.91-4.34-3.71-7.03-4.43l-60.14-15.95c-3.64-.96-9.18,1.92-9.94,5.12l-3.84,16.28c-.99,4.18,3.62,8.01,7.53,9.05l58.46,15.51c3.59.95,10.17.71,11.44-3.35ZM658.09,335.56c4.32-12.34,7.01-23.72-3.03-26.14l-57.86-13.91c-5.41-1.3-9.24,2.87-10.4,6.87l-3.03,10.44c-1.22,4.22-.64,10.7,5.08,12.14l58.97,14.85c3.5.88,9.07-.8,10.27-4.26Z"/>
  <path class="st0" d="M442.63,675.72c-4.23,1.12-7.25,4.24-7.61,7.59s2.66,9.04,6.98,8.26c13.13-2.35,25.77-5.39,39.22-6.5l24.67-.07,27.05,4.02c32.31,6.61,63.84,13.47,96.92,15.56l12.18.77,39.91.04,15.88-1.04c78.38-5.13,158.2-37.11,214.61-92.06l26.4-25.72,9.95-9.08c18.4-16.8,39.86-28.88,62.46-39.37,2.64-1.23,4.14-3.46,3.8-5.95-.3-2.16-3.5-4.4-6.05-3.79l-13.98,3.32-33.21,6.84-8.89.94-39.77-.25-25.62-3.58c-6.18-.86,2.32-4.25,4.16-14.54l11.98,1.98,10.54,1.27,35.43-.12c18.09-1.58,35.29-5.51,52.6-10.27,9.47-2.6,17.96-1.78,24.13,6.66,5.95,8.13,5.73,20.85-2.39,28.21-6.05,5.48-40.46,16.67-65.12,40.83l-31.28,30.63-11.63,10.53c-60.6,54.85-132.25,82.24-213.33,89.39l-16.21,1.04h-43.93s-16.18-1.02-16.18-1.02c-26.22-1.64-51.39-6.16-77.2-11.59-14.57-3.06-28.33-6.58-43.11-7.71l-26.75.15-36.15,6.03c-14.46,2.41-24.41-12.16-23.32-25.32.93-11.22,8.32-17.88,18.66-20.8,11.07-3.13,21.53-7.85,31.95-12.82,15.15-7.21,27.73-16.68,40.08-27.96,16.31-14.9,32.69-28.48,51.27-40.73,30.33-20,62.96-34.87,98.57-45.42.74,5.1,1.74,8.89,4.28,14.49-51.45,16.09-98.52,41.98-138.09,78.72-24.25,22.52-51.09,39.76-83.87,48.46Z"/>
  <path class="st0" d="M535.04,660.3c-7.69,2.51-14.37,5.1-22.96,6.56,3.7-3.18,8.02-4.34,12.71-6.48,33.55-15.3,67.13-28.44,102.55-39.26,33.33-10.19,66.24-18.77,100.66-25.44,66.79-12.94,133.08-22.23,201.28-28.19-8.42,3.5-17.36,4.37-26.69,6.03l-126.43,22.48c-68.43,12.17-134.83,29.63-200.68,51.12l-40.43,13.19Z"/>
  <path class="st0" d="M646.94,691.46c.58-.03-1.78-.77-2.28-.77h-20.32c-.66,0-2.99.73-2.54.63l-8.87-.54-17.94-.94-31.08-3.22-30.12-4.41c5.7-.86,10.68-.31,16.16.24l9.89,1,16.65.78,60.43.14,17.05-.92,15.76-1.18c45.26-4.34,89.32-13.25,132.1-28.48l40.62-16.69c31.86-13.09,59.08-31.66,87.94-51.8-19.47,18.93-41.97,33.16-64.72,47.03-35.23,19.84-71.4,34.77-110.6,44.47-24.39,6.04-48.19,10.77-73.25,12.6l-13.79,1-21.1,1.05Z"/>
  <path class="st0" d="M586.41,670.35c-.07-.38-.14-1.52.33-1.65l2.96-.79c.28-.17-.26-2.47-1.04-2.52l-3.51-.24-3.25-.22,24.18-4.27c101.45-15.24,209.94-41.95,305.76-77.79,3.42-1.28,5.74-4.16,9.42-1.57l-26.27,11.34c-90.92,39.26-210.88,68.4-308.59,77.72Z"/>
  <path class="st0" d="M700.85,562.76l-3.78,2.59c-1.6.75-1.98,4.48-1.29,6.3-47.07,11.7-92.46,29.4-134.76,54.02l-51.72,33.38c2.81-4.67,7.03-8.03,11.24-11.67l8.74-7.54c42.3-36.51,104.67-64.81,159.61-77.1l11.96.02Z"/>
  <path class="st0" d="M910.28,551.74l-5.86,5.06,3.61,1.21c.53.18.89,1.01,1.05,1.48l-4.99-.67-11.14-.89-11.99-.94-14.01-1.04-23.69-.67c-7.67-.22-14.98-.02-22.61,0l-20.53.06c5.21-3.36,8.6-5.73,12.17-9.51l47.54.17,13.13.92,11.03.92,26.3,3.9Z"/>
  <path class="st0" d="M706.93,569.17l-.28-6.49,13.35-6.05c9.19-4.17,20.36-3.77,30.4-5.54,5.61-.99,9.39-.15,14.11,3.22l7.66,4c-22.66,2.82-43.76,6.62-65.24,10.87Z"/>
  <path class="st0" d="M732.12,531.9c-2.6-11-9.22-15.5-3.91-16.02l8.72-.85,14.51-1.42c-2.99,5.42-4.84,10.11-4.65,15.91l-14.67,2.39Z"/>
  <path class="st0" d="M838.95,528.56l-14.93.18c-1.25.02-4.44-1.42-4.82-1.93l-5.5-14.17,11.21.9,10.62.85c.58,5.87,1.1,7.55,3.41,14.17Z"/>
  <path class="st0" d="M581.91,664.93l3.25.22,3.51.24c.78.05,1.33,2.35,1.04,2.52l-2.96.79c-.47.12-.4,1.26-.33,1.65l-11.5,1.1-2.3-.72c-.5-.11-1.34.57-1.74.85l-8.9.84-12.18.99-16.91.55-18.11.79c1.51-2.31,2.84-1.52,5.21-1.85l43.3-6.14c.35.29-1.03,2.27-1.85,2.43l-6.57,1.28,15.99-.49c4-.12,6.55-.67,10.92-1.88l-4.64-1.7-.18-1.75,4.95.29ZM551.99,671.5l-.55-.87-6.56.25.55.87,6.56-.25Z"/>
  <path class="st0" d="M916.81,552.79l1.97,1.09c.19.09.86-.22,1.07-.2v5.99s-10.77-.18-10.77-.18c-.16-.48-.52-1.31-1.05-1.48l-3.61-1.21,5.86-5.06,6.53,1.05Z"/>
  <path class="st0" d="M706.66,562.68l.28,6.49-8.81,1.74c-.36.07-1.2.43-1.22.67l-1.13.08c-.69-1.82-.31-5.55,1.29-6.3l3.78-2.59,5.81-.09Z"/>
  <path class="st0" d="M575.92,665.5l1.22.88,4.64,1.7c-4.36,1.21-6.92,1.76-10.92,1.88l-15.99.49,6.57-1.28c.81-.16,2.19-2.14,1.85-2.43l12.63-1.24Z"/>
  <path class="st0" d="M919.84,559.67v-5.99c4.61.44,10.49,2.03,14.11,4.44.43.29-1.85,1.59-2.39,1.59l-11.72-.04Z"/>
  <path class="st0" d="M646.94,691.46l-25.14-.14c-.45.1,1.88-.63,2.54-.63h20.32c.5,0,2.85.74,2.28.77Z"/>
  <path class="st0" d="M574.91,671.44l-4.03.12c.39-.27,1.24-.96,1.74-.85l2.3.72Z"/>
  <polygon class="st0" points="577.14 666.38 575.92 665.5 576.96 664.63 577.14 666.38"/>
  <path class="st0" d="M918.77,553.88l-1.97-1.09,1.55.24c.29.05.42.3.41.85Z"/>
  <path class="st0" d="M696.9,571.58c.03-.25.86-.6,1.22-.67l-1.22.67Z"/>
  <polygon class="st0" points="551.99 671.5 545.43 671.75 544.88 670.89 551.44 670.63 551.99 671.5"/>
  <path class="st0" d="M260.76,247.33c0,23.85-19.33,43.18-43.18,43.18s-43.18-19.33-43.18-43.18,19.33-43.18,43.18-43.18,43.18,19.33,43.18,43.18ZM244.22,247.38c0-14.72-11.93-26.66-26.66-26.66s-26.66,11.93-26.66,26.66,11.93,26.66,26.66,26.66,26.66-11.93,26.66-26.66Z"/>
</g></svg>