<?xml version="1.0" encoding="UTF-8"?>
<svg id="Layer_1" xmlns="http://www.w3.org/2000/svg" version="1.1" viewBox="0 0 1000 1000"><g transform="translate(0.00,26.28) scale(1.405185)">
  <!-- Generator: Adobe Illustrator 30.5.1, SVG Export Plug-In . SVG Version: 2.1.4 Build 3)  -->
  <defs>
    <style>
      .st0 {
        fill: #2e2a6b;
      }
    </style>
  </defs>
  <path class="st0" d="M485.36,653.22c.01,11.63-5.98,21.02-18.22,21.02h-44.96c-7.91-.01-16.43-6.57-16.89-14.66-2.32-40.31-16.08-76.28-50.16-99.16-12.18-8.19-25.51-12.05-40.12-13.18-28.78-2.22-54.87-16.48-72.13-39.69-31.58,18.75-69.99,21.03-103.07,6.24-30.76-13.75-53.37-40.55-60.51-73.53-25.03-10.27-45.27-27.89-59.33-50.47C-16.24,331.62-1.99,255.58,52.85,214.23c-4.42-21.47-2.39-42.74,5.27-63.24,17.92-47.94,63.27-79.34,114.64-80.25C191.98,19.32,246.29-9.48,299.78,2.88c21.76,5.03,40.84,16.37,55.67,33.16,16.2-17.97,36.5-29.5,59.64-33.99,52.45-10.17,104.48,18.23,123.33,67.94,31.49-.02,60.47,12.04,83,33.1,17.68,16.7,29.87,37.25,36.19,60.76,4.13,16.5,4.34,32.94,1.46,50.24,37.19,28.17,56.44,73.1,51.95,119.68-3.71,38.54-23.44,73.7-55.38,96.3,1.62,39.12-13.62,76.5-42.73,102.75-18.38,16.31-39.9,27.07-64.03,31.97-24.27,4.52-47.84,3.48-72.5-2.59,7.11,30.63,8.96,59.85,8.99,91.01ZM466.39,630.61c-1.4-27.87-5.21-54.3-12.73-80.8-1.07-3.76,1.01-8.15,3.6-10,2.86-2.04,6.81-2.4,10.43-.98,36.5,14.32,79.99,12.74,114.07-7.07,36.2-21.04,57.39-59.9,54.68-101.85-.3-4.68-.54-9.52,4.1-12.55,24.86-16.22,42.13-40.67,49.18-69.88,10.75-44.54-6.21-92.32-43.56-118.94-5.54-3.95-8.73-6.85-6.81-14.52,1.56-6.23,3.02-13.63,2.97-20.45-.43-57.87-48.56-105.46-106.53-104.38-7.27.14-11.38-1.79-13.63-8.79-9.28-28.88-34.08-50.24-60.83-57.59-32.48-8.92-64.51-.4-87.67,21.49-3.32,3.14-8.39,8.35-8.44,12.65l-.52,46.72c-.05,4.88-4.25,8.17-8.49,8.24-3.23.05-9.26-2.81-9.3-7.35l-.43-46.82c-.03-3.82-4.54-8.68-7.23-11.46-30.11-31.05-77.85-35.57-113.99-12.07-17.96,11.68-30.93,28.48-36.87,49.08-1.34,4.64-6.13,6.63-10.58,6.59-48.57-.48-91.09,29.16-104.77,76.16-4.88,16.79-4.75,33.72-.07,50.55.9,3.23-.74,7.91-3.44,9.72-8.44,5.64-15.76,11.2-22.39,18.87-21.86,25.28-32.12,58.85-26.97,91.89,6.35,40.66,33.25,73.54,71.53,87.79,4.96,1.85,5.14,7.27,6.13,11.84,4.97,22.93,19.68,42.16,39.7,54.22,32.5,19.56,72.87,16.65,103.45-4.83,6.37-4.48,12.15,2.68,15.14,7.29,13.39,20.66,36.15,32.72,60.67,34.48,55.39,3.96,93.67,49.83,103.92,102.88l3,24.59,42.93-.33-.26-24.41Z"/>
  <path class="st0" d="M238.69,376.09c3.01,14.06-1,27.79-10.8,37.42-10.03,9.85-24.05,13.72-38.16,10.17-18.21-4.58-30.28-20.9-29.79-39.37.48-17.99,13.11-33.8,31.36-38.01l8.43-126.81c-14.79-4.86-25.35-16.71-28.27-30.5-3.53-16.64,2.33-31.3,14.67-41.98s29.19-13.69,44.78-7.22c20.81,8.65,30.03,32.38,22.53,53.59l80.21,60.14c17.6-11.43,39.41-7.65,52.24,7.5,12.79,15.09,12.56,36.85-.48,51.89-13.14,15.16-35.33,18.07-52.74,6.44l-93.97,56.75ZM237.03,178.98c0-13.18-10.68-23.86-23.86-23.86s-23.86,10.68-23.86,23.86,10.68,23.86,23.86,23.86,23.86-10.68,23.86-23.86ZM320.47,304.56c-6.6-13.43-5.26-25.58.59-37.28l-44-32.78-33.85-25.54c-7.6,7.21-15.38,10.84-25.27,12.14l-8.31,125.47c8.39,2.29,14.52,6.27,20.4,12.87l90.45-54.87ZM376.69,286.68c0-11.59-9.4-20.99-20.99-20.99s-20.99,9.4-20.99,20.99,9.4,20.99,20.99,20.99,20.99-9.4,20.99-20.99ZM220.87,385.45c0-11.63-9.43-21.07-21.07-21.07s-21.07,9.43-21.07,21.07,9.43,21.07,21.07,21.07,21.07-9.43,21.07-21.07Z"/>
  <path class="st0" d="M457.69,206.5c-3.45-.69-6-5.23-3.63-7.45l8.67-8.08-.51-12.16c-.66-15.78,8.49-29.62,21.26-36.16,14.34-7.35,30.44-5.53,42.97,4.5,12.32,9.86,17.8,25.59,13.74,41.13-3.64,13.94-15.11,25.62-30.38,28.58-14.58,2.83-28.76-1.87-38.67-13.04-4.64,2.29-8.82,3.62-13.46,2.69ZM522.8,178.11c0-11.65-9.44-21.09-21.09-21.09s-21.09,9.44-21.09,21.09,9.44,21.09,21.09,21.09,21.09-9.44,21.09-21.09Z"/>
  <path class="st0" d="M519.85,423.25l3.59,11.72c6.34,11.1,20.49,13.17,30.14,6.87,10.8-7.05,12.86-21.5,4.84-31.78-5.88-7.55-15.59-13.48-24.56-10.35-5.44,1.89-10.23-.85-12.34-5.38s.57-10.34,5.38-12.48c21.65-9.64,52.43,11.64,54.77,38.79,1.17,13.65-4.24,25.71-14.67,34.53-11.34,9.58-27.43,11.77-41.38,5.59-12.82-5.68-22.49-18.83-22.91-33.98-.13-4.72,3.02-8.29,7.27-9.32,3.3-.8,8.41.99,9.88,5.8Z"/>
  <path class="st0" d="M416.75,244.07c-3.24,2.42-8.69-.06-10.23-2.42s-2.61-7.34.5-9.68l26.77-20.17c3.61-2.72,8.71-.69,10.6,2.73s1.37,7.87-2.27,10.59l-25.36,18.95Z"/>
  <path class="st0" d="M494.82,360.13c4.1,2.69,4.75,7.66,2.78,11.01s-7.16,4.87-10.84,2.5l-15.76-10.12c-3.86-2.48-5.33-6.62-3.48-10.65s7.22-5.91,11.38-3.18l15.91,10.44Z"/>
  <path class="st0" d="M439.89,324.09c4,2.55,5.08,6.77,3.28,10.7-1.25,2.74-6.56,5.81-10.08,3.5l-17.5-11.5c-2.7-1.78-2.22-6.94-.74-9.46,1.34-2.28,6.47-5.1,9.56-3.12l15.48,9.88Z"/>
</g></svg>