<?xml version="1.0" encoding="UTF-8"?>
<svg id="Layer_1" xmlns="http://www.w3.org/2000/svg" version="1.1" viewBox="0 0 89.92 107.39">
  <!-- Generator: Adobe Illustrator 30.5.1, SVG Export Plug-In . SVG Version: 2.1.4 Build 3)  -->
  <defs>
    <style>
      .st0 {
        fill: #5b57cd;
      }

      .st1 {
        fill: #2f2a6f;
      }
    </style>
  </defs>
  <path class="st1" d="M16.36,74.31c29.15,9.73,29.28,9.94,57.85,0,10.58-3.68,11.35,11.17-4.51,16.59-17.11,5.85-14.09,9-24.28,9s-7.55-3.02-24.16-9-15-20.16-4.9-16.59Z"/>
  <path class="st0" d="M78.34,42.71c0,18.16-14.62,28.14-32.78,28.14S12.57,60.78,12.57,42.62c0-8.48,5.77-16.77,11.91-23.91,5.85-6.8,11.4-13.63,21.08-13.63,9.08,0,15.08,6.5,21.52,13.73,6.12,6.87,11.26,14.82,11.26,23.9Z"/>
  <path class="st0" d="M24.15,18.72c5.85-6.8,5.87-13.63,21.08-13.63s15.08,6.5,21.52,13.73"/>
</svg>