<?xml version="1.0" encoding="UTF-8"?>
<svg id="Layer_1" xmlns="http://www.w3.org/2000/svg" version="1.1" viewBox="0 0 639.64 709.58">
  <!-- Generator: Adobe Illustrator 30.5.1, SVG Export Plug-In . SVG Version: 2.1.4 Build 3)  -->
  <defs>
    <style>
      .st0 {
        fill: #5f56c7;
      }

      .st0, .st1 {
        stroke: #5f56c7;
        stroke-miterlimit: 10;
      }

      .st1 {
        fill: none;
        stroke-width: 20px;
      }
    </style>
  </defs>
  <g id="Generative_Object">
    <g>
      <path class="st1" d="M562.12,538.92c-4.86,5.17,14.44,44.36-14.36,74.51-14.51,15.19-37.25,20.34-58.06,19.57l-47.75-1.77-21.32-.15c-4.14-.03-8.77,2.78-10.17,6.79-2.61,7.51-3.12,15.15-3.97,22.99l-3.46,31.81c-.32,2.95-4.96,6.92-8.37,6.91l-279.7-.12c-6.92,0-10.34-7.42-9.06-12.96,4.39-18.9,6.75-37.05,8.84-56.34,4.73-43.8,4.49-90.01-14.15-130.47-4.77-10.34-9.67-19.95-15.96-29.44l-31.03-46.79C13.91,363.61,1.16,293.61,16,223.28c2.88-13.65,6.84-26.22,11.64-39.36,13.45-36.82,35.13-69.9,63.16-97.23,38.52-37.56,84.73-60.15,137.39-70.46,33.52-6.57,67.02-8.15,101-3.78,38.51,4.96,73.46,14.4,108.35,31.49,22.25,10.9,41.97,25.39,60.43,41.69l12.84,13.09c19.91,20.31,34.03,45.01,44.07,71.64,5.92,15.69,9.3,31.32,11.67,47.93,2.71,19.06,1.36,37.48-4.54,55.75-3.27,10.13-1.17,20.57,4.72,29.08l12.81,18.5,23.1,33.82,20.48,30.4c9.56,14.2,8.77,32.88-3.56,45.15-6.28,6.25-14.72,9.68-23.31,11.51l-17.3,2.04c-.01,4.71,1.56,9.05,3.4,13.34,12.28,28.7-7.99,37.74-8.59,39.75-.49,1.64,3.34,6.47,3.39,12.52.06,7.4-2.48,14.48-7.03,20.21l-8.02,8.53Z"/>
      <g>
        <path class="st0" d="M288.61,156.68c0,5.52-5.07,9.17-9.47,9.36s-10.3-2.63-10.31-7.85l-.13-54.26c0-3,1.23-5.19,3.45-7.03,2.85-2.38,7.28-3.1,10.75-1.15,2.81,1.58,5.79,4.75,5.79,8.86l-.08,52.08Z"/>
        <path class="st0" d="M288.61,437.3c0,5.52-5.07,9.17-9.47,9.36-4.42.19-10.3-2.63-10.31-7.85l-.13-54.26c0-3,1.23-5.19,3.45-7.03,2.85-2.38,7.28-3.1,10.75-1.15,2.81,1.58,5.79,4.75,5.79,8.86l-.08,52.08Z"/>
        <path class="st0" d="M452.07,271.29c-.83,3.3-4.28,6.92-7.72,6.93l-55.54.17c-4.54-1.67-7.41-5.17-7.49-9.51-.62-4.7,2.5-8.54,7.07-10.5l56.38.38c5.68.04,8.66,7.14,7.3,12.51Z"/>
        <path class="st0" d="M175.16,271.48c-1.06,2.94-4.22,6.75-7.81,6.75l-54.45.04c-4.75,0-8.18-4.99-8.5-8.68-.57-5.21,2.07-9.31,7.02-11.08h56.82c5.49,1.87,8,6.71,6.92,12.97Z"/>
        <path class="st0" d="M364.69,195.85c-4.17,4.16-10.13,3.11-13.67-.3-3.9-3.76-3.79-10.08.18-14.04l36.72-36.69c4.01-4,10.15-4.18,13.98-.21s4.13,9.97-.06,14.16l-37.15,37.08Z"/>
        <path class="st0" d="M175.96,385.05c-5.2,5.24-10.67,12.03-17.37,8.94-4.86-2.24-7.27-6.72-5.85-12.11.79-3.01,3.34-4.96,5.57-7.18l33.08-33c3.12-3.11,6.46-4.66,10.67-3.25,3.71,1.24,6.44,4.84,6.59,9.19.1,3.07-.76,5.18-2.81,7.26l-17.67,17.84-12.2,12.31Z"/>
        <path class="st0" d="M198.86,174.67c5.17,5.16,12.64,10.23,8.76,18.47-1,2.12-3.79,4.49-6.94,5.28s-6.56-.86-8.92-3.22l-36.68-36.71c-2.06-2.06-2.61-4.67-2.52-7.55.12-3.95,2.8-7.4,5.93-8.61,4.04-1.56,7.74-.22,10.65,2.68l29.72,29.66Z"/>
        <g>
          <path class="st0" d="M401.73,376.92c4.19,3.57,5.14,10.05,1.82,14.29-3.23,4.12-10.43,6.49-14.79,2.13l-37.85-37.82c-2.39-2.39-3.48-5.57-3.26-8.52.24-3.19,1.66-5.48,4.55-7.79,2.92-2.34,8.83-3.28,11.99-.13l33.74,33.59,3.8,4.26Z"/>
          <path class="st0" d="M403.46,386.79c-.48,3.75-3.78,6.08-6.75,6.69-3.8.77-6.63-.9-9.28-3.57l-35.56-35.89c-3.45-3.48-3.17-8.23-.48-11.68,3.28-4.2,8.94-4.69,12.86-.79l30.3,30.19,5.94,6.34c2.3,2.46,3.5,4.65,2.98,8.7Z"/>
        </g>
      </g>
    </g>
  </g>
</svg>