<?xml version="1.0" encoding="UTF-8"?>
<svg id="Layer_1" xmlns="http://www.w3.org/2000/svg" version="1.1" viewBox="0 0 648.62 99.09">
  <!-- Generator: Adobe Illustrator 30.5.1, SVG Export Plug-In . SVG Version: 2.1.4 Build 3)  -->
  <defs>
    <style>
      .st0 {
        fill: #5b57cd;
      }

      .st1 {
        fill: #1a1b23;
      }

      .st2 {
        fill: #2f2a6f;
      }
    </style>
  </defs>
  <g>
    <path class="st1" d="M150.44,79c0,.69-.22,1.24-.65,1.65-.43.41-1.11.61-2.03.61h-12.2c-.89,0-1.56-.2-2.01-.61-.45-.41-.67-.96-.67-1.65,0-1.12.64-1.98,1.91-2.56l1.26-.46c.99-.38,1.75-.89,2.26-1.53.51-.64.77-1.61.77-2.91v-30.76c0-1.02-.09-1.8-.27-2.33s-.55-1.13-1.11-1.8l-3.1-4.13c-.46-.59-.81-1.08-1.05-1.47-.24-.39-.36-.85-.36-1.36,0-.61.21-1.1.63-1.45.42-.36.99-.54,1.7-.54h11.02c.84,0,1.53.12,2.07.36.54.24,1.08.76,1.65,1.55l26.09,37.64-1.53,5.24v-35.08c0-1.3-.25-2.26-.75-2.89-.5-.63-1.27-1.14-2.31-1.55l-1.42-.46c-1.25-.61-1.87-1.47-1.87-2.56,0-.69.22-1.24.65-1.65.43-.41,1.1-.61,1.99-.61h12.24c.89,0,1.56.21,1.99.61.43.41.65.96.65,1.65,0,1.12-.63,1.98-1.87,2.56l-1.26.46c-1.02.38-1.78.89-2.28,1.51-.5.63-.75,1.6-.75,2.93v31.33c0,.89.08,1.69.25,2.39.16.7.43,1.35.78,1.93l1.95,3.06c.51.77.83,1.34.98,1.72s.21.78.21,1.19c0,.66-.21,1.2-.63,1.61-.42.41-1,.61-1.74.61h-11.9c-1.4,0-2.1-.61-2.1-1.84,0-.43-.1-.86-.31-1.28-.21-.42-.68-1.11-1.42-2.09l-25.13-36.3,3.33-2.91v34.74c0,1.28.25,2.22.75,2.83s1.25,1.14,2.28,1.57l1.42.46c1.28.59,1.91,1.44,1.91,2.56Z"/>
    <path class="st1" d="M224.38,59.26c0,1.43-.4,2.53-1.21,3.31-.8.78-1.96,1.17-3.46,1.17h-22.19v-3.29h12.32c1.25,0,1.87-.61,1.87-1.84,0-3.08-.5-5.36-1.49-6.83s-2.21-2.2-3.63-2.2c-1.15,0-2.17.36-3.06,1.09-.89.73-1.6,1.85-2.12,3.37-.52,1.52-.78,3.45-.78,5.8,0,4.67,1.04,8.14,3.14,10.42,2.09,2.28,4.87,3.42,8.34,3.42,2.04,0,3.86-.43,5.45-1.28,1.6-.85,2.81-2.05,3.65-3.58.43-.43.79-.73,1.07-.88.28-.15.56-.23.84-.23.33,0,.61.15.84.44.23.29.33.73.31,1.32-.03,2.27-.74,4.37-2.14,6.29-1.4,1.93-3.33,3.47-5.78,4.63-2.45,1.16-5.3,1.74-8.57,1.74-3.67,0-6.91-.75-9.72-2.24-2.8-1.49-4.98-3.59-6.54-6.29-1.56-2.7-2.33-5.84-2.33-9.41,0-3.77.75-7.1,2.26-9.98,1.5-2.88,3.68-5.14,6.54-6.77,2.86-1.63,6.3-2.45,10.33-2.45,3.34,0,6.21.63,8.61,1.89,2.4,1.26,4.24,2.96,5.53,5.11,1.29,2.14,1.93,4.57,1.93,7.27Z"/>
    <path class="st1" d="M230.69,71.08v-15.8c0-.74-.1-1.26-.29-1.55-.19-.29-.49-.52-.9-.67l-1.38-.15c-.43-.18-.76-.41-.98-.69-.22-.28-.33-.64-.33-1.07,0-.48.14-.89.44-1.22.29-.33.79-.64,1.51-.92l8.45-2.91c.95-.36,1.7-.61,2.26-.77s1.1-.23,1.61-.23c.74,0,1.31.22,1.7.67.39.45.59,1.01.59,1.7v21.23c0,1.86.4,3.26,1.21,4.19s1.91,1.4,3.31,1.4c.94,0,1.9-.2,2.87-.61.97-.41,1.94-1.05,2.91-1.91l1.38-1.26,1.87,2.18-1.53,1.45c-3.06,2.91-5.78,4.97-8.17,6.2-2.38,1.22-4.61,1.84-6.68,1.84-2.93,0-5.31-.98-7.14-2.95s-2.74-4.68-2.74-8.15ZM254.1,76.32v-2.45l-.34-.19v-18.4c0-.74-.1-1.26-.31-1.55-.2-.29-.5-.52-.88-.67l-1.38-.15c-.46-.18-.8-.41-1.01-.69s-.33-.64-.33-1.07c0-.48.15-.89.46-1.22s.81-.64,1.53-.92l8.42-2.91c.94-.36,1.69-.61,2.26-.77s1.12-.23,1.68-.23c.71,0,1.26.22,1.65.67.38.45.57,1.01.57,1.7v26.7c0,.89.1,1.53.29,1.91s.48.66.86.84l1.11.34c.46.25.8.54,1.01.86s.33.71.33,1.17c0,.61-.19,1.09-.57,1.43-.38.34-.93.52-1.65.52h-8.95c-1.38,0-2.51-.46-3.41-1.4s-1.34-2.11-1.34-3.54Z"/>
    <path class="st1" d="M288.92,47.71l.61,8.87v17.52c0,.82.13,1.43.4,1.86.27.42.74.69,1.4.82l2.98.5c.64.1,1.1.33,1.38.67.28.34.42.8.42,1.36,0,.61-.2,1.09-.59,1.43-.39.34-.96.52-1.7.52h-18.25c-.72,0-1.27-.17-1.66-.52-.39-.34-.59-.82-.59-1.43,0-.46.11-.85.34-1.17s.57-.61,1.03-.86l1.11-.34c.38-.18.66-.45.84-.82s.27-1,.27-1.89v-18.97c0-.74-.1-1.26-.29-1.57-.19-.31-.48-.52-.86-.65l-1.42-.19c-.43-.18-.76-.41-.98-.69-.22-.28-.33-.62-.33-1.03,0-.51.15-.93.46-1.26.31-.33.81-.64,1.53-.92l8.45-2.79c.95-.36,1.68-.61,2.22-.77s.99-.23,1.38-.23c.54,0,.95.19,1.24.57s.49,1.05.59,1.99ZM288.23,61.4c0-3.7.49-6.76,1.47-9.18.98-2.42,2.3-4.23,3.94-5.43,1.65-1.2,3.45-1.8,5.41-1.8,2.3,0,4.08.73,5.36,2.18,1.27,1.45,1.91,3.58,1.91,6.39,0,2.65-.55,4.61-1.65,5.87-1.1,1.26-2.51,1.89-4.25,1.89s-3.04-.44-3.92-1.32-1.33-2.1-1.36-3.65v-1.45c0-.71-.15-1.25-.46-1.61-.31-.36-.77-.54-1.38-.54-.67,0-1.29.29-1.87.88-.59.59-1.05,1.49-1.4,2.72-.34,1.22-.52,2.77-.52,4.63l-1.3.42Z"/>
    <path class="st1" d="M328.4,45.03c3.87,0,7.27.79,10.19,2.37,2.92,1.58,5.19,3.77,6.81,6.58,1.62,2.81,2.43,6.04,2.43,9.72s-.84,6.63-2.53,9.41c-1.68,2.78-4.02,4.98-7.02,6.6-3,1.62-6.46,2.43-10.39,2.43s-7.27-.79-10.18-2.37c-2.91-1.58-5.18-3.77-6.81-6.58s-2.45-6.05-2.45-9.72.84-6.63,2.53-9.41c1.68-2.78,4.02-4.98,7.02-6.6,2.99-1.62,6.46-2.43,10.39-2.43ZM331,77.4c1.2-.23,2.15-.94,2.87-2.14.71-1.2,1.13-2.87,1.24-5.03.11-2.16-.13-4.75-.75-7.79-.59-3.11-1.35-5.64-2.28-7.59-.93-1.95-1.96-3.35-3.1-4.19-1.13-.84-2.34-1.15-3.62-.92-1.2.23-2.15.94-2.87,2.14-.71,1.2-1.12,2.86-1.22,4.99-.1,2.13.14,4.75.73,7.86.61,3.09,1.38,5.61,2.3,7.56s1.95,3.35,3.1,4.19c1.15.84,2.34,1.15,3.6.92Z"/>
    <path class="st1" d="M366.84,47.44v3.9l.46,1.03v39.63c0,.92.09,1.56.27,1.93.18.37.46.64.84.82l1.38.38c.43.23.77.5.99.82s.34.72.34,1.21c0,.59-.19,1.05-.57,1.4-.38.34-.93.52-1.65.52h-15.65c-.71,0-1.26-.17-1.65-.52-.38-.34-.57-.81-.57-1.4,0-.48.11-.89.33-1.21s.55-.59,1.01-.82l1.07-.38c.41-.18.7-.45.88-.82.18-.37.27-1.01.27-1.93v-36.8c0-.71-.1-1.22-.31-1.53-.2-.31-.5-.52-.88-.65l-1.38-.15c-.44-.2-.76-.44-.98-.71s-.33-.62-.33-1.05c0-.51.15-.92.44-1.22.3-.31.8-.61,1.51-.92l7.92-2.91c.92-.36,1.67-.61,2.26-.77.58-.15,1.15-.23,1.68-.23.74,0,1.31.22,1.7.65.39.43.59,1.01.59,1.72ZM365.24,56.78l-1.8-2.18c1.91-3.04,4.07-5.4,6.47-7.08s5.11-2.53,8.15-2.53,5.48.73,7.73,2.2c2.24,1.47,4,3.51,5.28,6.12,1.27,2.61,1.91,5.68,1.91,9.2,0,4.03-.77,7.52-2.31,10.46-1.54,2.95-3.65,5.22-6.33,6.83-2.68,1.61-5.71,2.41-9.1,2.41-2.81,0-5.24-.61-7.31-1.84s-3.8-3.05-5.2-5.47l2.83-2.95c.97,1.78,2.03,3.07,3.19,3.86,1.16.79,2.44,1.19,3.85,1.19s2.69-.45,3.79-1.36c1.1-.9,1.96-2.33,2.58-4.27.63-1.94.94-4.44.94-7.5s-.31-5.37-.94-7.23c-.62-1.86-1.47-3.24-2.54-4.13-1.07-.89-2.31-1.34-3.71-1.34s-2.77.45-4.04,1.36c-1.26.91-2.41,2.31-3.42,4.23Z"/>
    <path class="st1" d="M416.31,45.03c3.87,0,7.27.79,10.19,2.37,2.92,1.58,5.19,3.77,6.81,6.58s2.43,6.04,2.43,9.72-.84,6.63-2.53,9.41-4.02,4.98-7.02,6.6c-3,1.62-6.46,2.43-10.39,2.43s-7.27-.79-10.18-2.37c-2.91-1.58-5.18-3.77-6.81-6.58s-2.45-6.05-2.45-9.72.84-6.63,2.53-9.41c1.68-2.78,4.02-4.98,7.02-6.6,2.99-1.62,6.46-2.43,10.39-2.43ZM418.91,77.4c1.2-.23,2.15-.94,2.87-2.14.71-1.2,1.13-2.87,1.24-5.03s-.13-4.75-.75-7.79c-.59-3.11-1.35-5.64-2.28-7.59-.93-1.95-1.96-3.35-3.1-4.19-1.13-.84-2.34-1.15-3.62-.92-1.2.23-2.15.94-2.87,2.14-.71,1.2-1.12,2.86-1.22,4.99-.1,2.13.14,4.75.73,7.86.61,3.09,1.38,5.61,2.3,7.56.92,1.95,1.95,3.35,3.1,4.19,1.15.84,2.34,1.15,3.6.92Z"/>
    <path class="st1" d="M454.91,47.71l.61,8.87v17.52c0,.82.13,1.43.4,1.86.27.42.74.69,1.4.82l2.98.5c.64.1,1.1.33,1.38.67.28.34.42.8.42,1.36,0,.61-.2,1.09-.59,1.43-.39.34-.96.52-1.7.52h-18.25c-.72,0-1.27-.17-1.66-.52-.39-.34-.59-.82-.59-1.43,0-.46.11-.85.34-1.17s.57-.61,1.03-.86l1.11-.34c.38-.18.66-.45.84-.82s.27-1,.27-1.89v-18.97c0-.74-.1-1.26-.29-1.57-.19-.31-.48-.52-.86-.65l-1.42-.19c-.43-.18-.76-.41-.98-.69-.22-.28-.33-.62-.33-1.03,0-.51.15-.93.46-1.26.31-.33.81-.64,1.53-.92l8.45-2.79c.95-.36,1.68-.61,2.22-.77s.99-.23,1.38-.23c.54,0,.95.19,1.24.57s.49,1.05.59,1.99ZM454.22,61.4c0-3.7.49-6.76,1.47-9.18.98-2.42,2.3-4.23,3.94-5.43,1.65-1.2,3.45-1.8,5.41-1.8,2.3,0,4.08.73,5.36,2.18,1.27,1.45,1.91,3.58,1.91,6.39,0,2.65-.55,4.61-1.65,5.87-1.1,1.26-2.51,1.89-4.25,1.89s-3.04-.44-3.92-1.32-1.33-2.1-1.36-3.65v-1.45c0-.71-.15-1.25-.46-1.61-.31-.36-.77-.54-1.38-.54-.67,0-1.29.29-1.87.88-.59.59-1.05,1.49-1.4,2.72-.34,1.22-.52,2.77-.52,4.63l-1.3.42Z"/>
    <path class="st1" d="M476.13,50.39l-1.64-.5c-.49-.21-.84-.47-1.05-.8-.22-.33-.33-.73-.33-1.19,0-.59.2-1.06.61-1.43.41-.37.93-.55,1.57-.55h2.07c.43,0,.83-.12,1.19-.36.36-.24.77-.68,1.22-1.32l4.9-5.55c.54-.66,1.09-1.19,1.66-1.57s1.14-.57,1.7-.57c.66,0,1.19.2,1.59.61.39.41.59,1.01.59,1.8v30.14c0,1.79.33,3.12.99,4.02s1.61,1.34,2.83,1.34c.71,0,1.33-.15,1.84-.44.51-.29.95-.65,1.32-1.07.37-.42.73-.83,1.07-1.22s.71-.68,1.09-.86c.33-.02.62.1.86.36s.35.71.33,1.32c-.1,1.78-.66,3.4-1.66,4.86-1.01,1.45-2.37,2.6-4.09,3.44-1.72.84-3.69,1.26-5.91,1.26-3.62,0-6.41-.88-8.36-2.64-1.95-1.76-2.93-4.48-2.93-8.15v-18.59c0-.71-.11-1.23-.33-1.55-.22-.32-.59-.58-1.13-.78ZM485.74,50.54l.08-4.63h12.63c.66,0,1.19.15,1.57.44.38.29.57.72.57,1.28,0,.82-.38,1.51-1.13,2.07-.75.56-1.97.84-3.65.84h-10.06Z"/>
    <path class="st1" d="M503.26,73.34c0-3.26,1.42-5.86,4.27-7.79,2.84-1.92,6.87-2.89,12.07-2.89,1.4,0,2.66.11,3.77.33s2.05.52,2.81.9l-.99,2.83c-.66-.36-1.33-.62-2.01-.78s-1.42-.25-2.24-.25c-1.51,0-2.71.47-3.6,1.42s-1.34,2.27-1.34,3.98.41,2.97,1.24,3.86c.83.89,1.91,1.34,3.23,1.34.99,0,1.94-.23,2.83-.71.89-.47,1.61-1.08,2.14-1.82l.8,2.68c-1.2,1.81-2.9,3.21-5.11,4.21-2.21.99-4.57,1.49-7.1,1.49-3.24,0-5.84-.82-7.82-2.47s-2.97-3.75-2.97-6.33ZM525.06,76.25v-.84l-.99-.08v-22.61c0-1.33-.33-2.37-.99-3.12s-1.58-1.13-2.75-1.13c-1.07,0-1.92.25-2.54.75-.62.5-.94,1.13-.94,1.89v2.91c0,1.76-.59,3.14-1.76,4.15-1.17,1.01-2.8,1.51-4.9,1.51-1.76,0-3.09-.42-4-1.24-.9-.83-1.36-1.98-1.36-3.46,0-1.58.67-3.14,2.01-4.67,1.34-1.53,3.35-2.79,6.03-3.79,2.68-.99,6.01-1.49,9.99-1.49,4.69,0,8.17.94,10.45,2.83,2.27,1.89,3.4,4.48,3.4,7.77v18.06c0,.56.13,1.01.38,1.34.25.33.62.5,1.11.5.38,0,.7-.09.96-.27s.47-.42.65-.73c.1-.1.22-.2.34-.29.13-.09.28-.13.46-.13.38,0,.67.15.88.44.2.29.31.66.31,1.09,0,.92-.33,1.88-.99,2.89-.66,1.01-1.64,1.86-2.93,2.56-1.29.7-2.88,1.05-4.76,1.05-2.45,0-4.4-.55-5.85-1.65s-2.18-2.51-2.18-4.25Z"/>
    <path class="st1" d="M560.18,26.33v47.86c0,.89.09,1.53.27,1.91.18.38.46.66.84.84l1.11.34c.46.25.8.54,1.01.86s.33.71.33,1.17c0,.61-.19,1.09-.57,1.43-.38.34-.93.52-1.64.52h-15.42c-.71,0-1.26-.17-1.64-.52-.38-.34-.57-.82-.57-1.43,0-.46.11-.85.33-1.17s.55-.61,1.01-.86l1.11-.34c.41-.18.7-.46.88-.84.18-.38.27-1.02.27-1.91v-40.05c0-.74-.1-1.26-.31-1.55-.21-.29-.5-.5-.88-.63l-1.38-.19c-.43-.18-.76-.41-.98-.69s-.33-.64-.33-1.07c0-.48.15-.89.44-1.22s.8-.64,1.51-.92l8.46-2.91c.94-.36,1.7-.61,2.26-.77.56-.15,1.1-.23,1.61-.23.74,0,1.31.22,1.7.67.4.45.59,1.01.59,1.7Z"/>
    <path class="st1" d="M601.69,59.26c0,1.43-.4,2.53-1.21,3.31-.8.78-1.96,1.17-3.46,1.17h-22.19v-3.29h12.32c1.25,0,1.87-.61,1.87-1.84,0-3.08-.5-5.36-1.49-6.83s-2.21-2.2-3.63-2.2c-1.15,0-2.17.36-3.06,1.09-.89.73-1.6,1.85-2.12,3.37-.52,1.52-.78,3.45-.78,5.8,0,4.67,1.04,8.14,3.14,10.42,2.09,2.28,4.87,3.42,8.34,3.42,2.04,0,3.86-.43,5.45-1.28,1.6-.85,2.81-2.05,3.65-3.58.43-.43.79-.73,1.07-.88.28-.15.56-.23.84-.23.33,0,.61.15.84.44.23.29.33.73.31,1.32-.03,2.27-.74,4.37-2.14,6.29-1.4,1.93-3.33,3.47-5.78,4.63-2.45,1.16-5.3,1.74-8.57,1.74-3.67,0-6.91-.75-9.72-2.24-2.8-1.49-4.98-3.59-6.54-6.29-1.56-2.7-2.33-5.84-2.33-9.41,0-3.77.75-7.1,2.26-9.98,1.5-2.88,3.68-5.14,6.54-6.77,2.86-1.63,6.3-2.45,10.33-2.45,3.34,0,6.21.63,8.61,1.89,2.4,1.26,4.24,2.96,5.53,5.11,1.29,2.14,1.93,4.57,1.93,7.27Z"/>
    <path class="st1" d="M621.42,47.44v26.74c0,.94.09,1.61.25,2.01.17.4.44.69.82.9l1.15.38c.72.44,1.07,1.03,1.07,1.8,0,1.33-.7,1.99-2.1,1.99h-15.27c-.71,0-1.26-.17-1.65-.52-.38-.34-.57-.82-.57-1.43,0-.46.11-.85.33-1.17s.55-.59,1.01-.82l1.11-.38c.41-.18.7-.46.88-.84s.27-1.02.27-1.91v-18.94c0-.74-.1-1.26-.29-1.55-.19-.29-.49-.5-.9-.63l-1.38-.19c-.43-.18-.76-.41-.98-.69s-.33-.64-.33-1.07c0-.48.15-.89.44-1.22s.8-.64,1.51-.92l8.46-2.91c.92-.36,1.66-.61,2.24-.77.57-.15,1.13-.23,1.66-.23.71,0,1.27.22,1.66.67.39.45.59,1.01.59,1.7ZM620.24,56.66l-1.87-2.1,1.53-1.45c3.09-2.96,5.84-5.05,8.26-6.27,2.42-1.22,4.68-1.84,6.77-1.84,3.06,0,5.51.98,7.35,2.95,1.84,1.97,2.75,4.68,2.75,8.15v18.06c0,.92.1,1.57.29,1.95s.49.66.9.84l1.07.38c.43.23.77.5.99.82s.34.71.34,1.17c0,.61-.19,1.09-.57,1.43-.38.34-.93.52-1.65.52h-15.3c-1.4,0-2.1-.66-2.1-1.99,0-.77.37-1.36,1.11-1.8l1.11-.38c.43-.2.73-.51.9-.92.16-.41.25-1.08.25-2.03v-15.68c0-1.84-.42-3.22-1.26-4.15s-2.02-1.4-3.52-1.4c-.97,0-1.96.21-2.98.61-1.02.41-2.03,1.05-3.02,1.91l-1.34,1.22Z"/>
  </g>
  <g>
    <path class="st2" d="M7.37,69.23c29.15,9.73,29.28,9.94,57.85,0,10.58-3.68,11.35,11.17-4.51,16.59-17.11,5.85-14.09,9-24.28,9s-7.55-3.02-24.16-9-15-20.16-4.9-16.59Z"/>
    <path class="st0" d="M69.35,37.63c0,18.16-14.62,28.14-32.78,28.14S3.58,55.7,3.58,37.54c0-8.48,5.77-16.77,11.91-23.91C21.35,6.83,26.89,0,36.57,0c9.08,0,15.08,6.5,21.52,13.73,6.12,6.87,11.26,14.82,11.26,23.9Z"/>
    <path class="st0" d="M15.17,13.63C21.02,6.83,21.03,0,36.25,0s15.08,6.5,21.52,13.73"/>
  </g>
</svg>