<?xml version="1.0" encoding="UTF-8"?>
<svg id="Layer_1" xmlns="http://www.w3.org/2000/svg" version="1.1" viewBox="0 0 1000 1000"><g transform="translate(0.00,13.97) scale(1.072306)">
  <!-- Generator: Adobe Illustrator 30.5.1, SVG Export Plug-In . SVG Version: 2.1.4 Build 3)  -->
  <defs>
    <style>
      .st0 {
        fill: #2e2a6b;
      }
    </style>
  </defs>
  <path class="st0" d="M508.28,563.87c.28,3.19-.23,6.73-1.85,8.16-1.92,1.69-5.32,2.73-8.2,2.55-4.97-.31-8.13-4.62-8.18-8.62-.05-4.72,3.43-8.72,7.79-9.49,4.54-.8,9.93,1.65,10.44,7.4Z"/>
  <path class="st0" d="M452.16,373.93c-.61-3.14.46-7.62,2.13-8.97,5.09-4.11,10.92-2.78,14.11,1.71s1.82,10.23-3.27,13.26c-4.47,2.66-11.63.93-12.97-6Z"/>
  <path class="st0" d="M557.16,545.18c-1.98.63-6.59.45-8.35-.36-3.36-1.55-5.06-6.38-4.48-9.53.63-3.4,3.14-6.81,7.03-7.75,4.45-1.07,9.14,2.23,10.49,5.72,1.65,4.3-.25,10.49-4.69,11.92Z"/>
  <path class="st0" d="M423.54,432.85c4.91-1.55,9.83.76,11.34,5.28,1.61,4.81-.32,9.58-5.63,11.81-3.99,1.68-9.42-.97-11.36-5.69-1.68-4.1.54-9.79,5.64-11.4Z"/>
  <path class="st0" d="M380.23,421.96c5.01-1.8,10.01,1.57,11.51,5.44,1.87,4.82-1.07,9.73-5.51,11.55-4.74,1.95-8.95-.31-11.26-4.86-1.99-3.92,0-10.24,5.26-12.13Z"/>
  <g>
    <path class="st0" d="M346.73,512.53l-1.41,12.28,7.09,4.07c1.42-5.08,3.89-6.69,8.07-8.45l4.36,3.43,12.35-8.5c1.93,4.56,5.84,4.12,7.42,10.2-4.02,2.91-7.67-.99-12.51,3.96l-7.67-.7c-.33,2.76-.55,5.62-1.54,6.48s-3.04,1.75-4.99,2.41l-1.53-2.09-.99-1.14c-10.17-11.74-27.45-14.65-39.85-4.71l-61.02,48.92-30.47,24.6c-5.67,4.58-11.86,9.04-15.08,15.94-7.18,15.41-2.44,27.4,8.19,40.21,6.08,7.32,11.23,15.62,17.85,21.7,12.6,11.59,30.05,10.83,42.67.78l62.31-49.64,37.77-29.69.28,2.35c-.02.46,1.85.02,1.94-.43l.44-2.13c.28-1.34,1.45-4.13,2.61-4.82,1-.6,3.96.49,5.12.74,2.64-2.07,5.63-3.1,9.01-2.98-2.37,8.76-7.5,16.23-15.02,22.2l-95.76,75.97c-18.64,14.79-45.19,13.81-62.45-3.79l-21.8,17.77-15.59,14.41-7.74,8.37c-8.6,34.37-2.11,63.55,18.26,92.72,16.84-5.7,34.6,4.34,38.01,21.59,3.02,15.31-6.39,30.43-21.06,33.56-3.66.78-9.01.55-12.61.13-10.78-1.26-17.58-9.64-21.09-17.78-4.46-10.35-.84-20.57,4.69-29.33-16.71-25.39-24.45-48.34-24.15-79.27-20.72,29.93-32.76,63.15-35.87,98.5,13.07,5.2,20.81,18.13,18.83,31.64s-12.67,23.1-25.25,24.37-25.34-5.98-29.68-18.41c-5.96-17.11,3.81-34.5,21.57-38.31,4.6-45.21,22.42-89.93,52.52-123.36l6.72-7.46,15.5-15.46,29.37-24.79-11.32-14.99-18.16,14.71-10.99,10.05-14.4,14.52-19.54,22.54-8.93,10.13c-7.99,9.07-16.85,16.87-26.28,24.7-12.77,10.59-26.7,19.16-41.79,26.1-1.92.88-4.27,1.6-5.17,2.71s-.68,4.68-.72,6.45c-.31,16.18-14.16,27.6-29.48,27.14S.62,810.25.09,794.98c-.52-14.98,10.45-28.4,25.94-29.65,10.1-.82,18.8,2.46,25.17,10.83,19.58-8.42,36.66-19.71,52.35-33.31l12.13-11.94,8.13-9.08-10.74-1.05-22-4.13c-13.15-3.53-25.22-8.7-37.82-14.28-7.45,10.5-19.21,16.24-31.34,13.16s-20.62-12.1-21.79-25.08c-1.42-15.86,9.11-29.86,25.47-31.74,16.94-1.95,31.68,12.11,31.72,29.88l25.44,10.39c13.37,5.46,39.84,10.63,54.36,8.17,17.18-20.76,36.41-39.54,58.31-55.51-9.13-23.72-1.17-42.83,17.83-58.17l48.1-38.83,45.19-35.87c7.37-5.85,17.11-8.82,26.64-9.11,4.57-.14,9.64,1.79,13.53,2.86ZM24.07,674.01c-7.97,2.44-11.45,11.41-9.03,17.99,2.9,7.88,10,11.42,18.15,8.91,6.97-2.15,10.98-10.25,9.15-17.06-2.09-7.76-9.59-12.49-18.26-9.84ZM43.11,792.05c-.88-8.65-8.87-13.39-16.18-12.51-6.88.83-12.45,6.94-12.43,14.27.02,6.93,5.24,13.46,13.15,14.43s16.39-7.02,15.46-16.19ZM210.69,863.89c6.73-1.88,11.26-8.2,10.54-14.86-.68-6.31-4.92-12.11-11.94-12.68-4.89-.4-9.65.82-12.66,4.06-2.84,3.04-3.91,7.54-3.51,12.11.77,8.78,9.24,13.7,17.57,11.37ZM128.4,883.61c1.34-2.59,1.17-8.49.17-11.49-1.78-5.31-7.3-7.78-12.22-8.35s-10.61,2.55-12.81,6.67c-3.28,6.14-3.17,11.48,1.39,16.37,3.22,3.47,7.65,6.18,12.24,5.3s8.39-3.01,11.23-8.51Z"/>
    <path class="st0" d="M398.12,592.38l-1.17,1.94.2.99c-3.38-.12-6.37.91-9.01,2.98-1.15-.25-4.12-1.34-5.12-.74-1.17.7-2.33,3.48-2.61,4.82l-.44,2.13c-.09.45-1.97.89-1.94.43l-.28-2.35c6.21-9.47,7.26-14.46,6.3-26.14-.48-5.78-4.56-10.49-7.91-14.87l-18.23-23.85c1.95-.66,4.01-1.55,4.99-2.41s1.21-3.72,1.54-6.48l7.67.7c4.84-4.95,8.49-1.05,12.51-3.96-1.59-6.08-5.5-5.65-7.42-10.2-3.67-8.69-3.58-19.7,4.38-26.44l15.7-13.29c3.47-2.94,8.34-2.67,11.51.33,10.64,10.08,29.13-6.59,31.26,10.55l1.45,11.63,14.43,1.84c3.59.46,9.62.93,12.32,3.33,3.46,3.08,1.89,9.46,1.37,13.24l-2.25,16.27c-.51,3.69,2.62,9.94-.04,13.69l-20.11,16.97c-10.72,9.04-24.71,9.25-34.34-1.93l-6.39-7.42-12.38,7.96c4.77,9.1,6.59,20.34,4.02,30.3ZM436.12,553.99l17.69-14.77c-1.36-8.23-.04-14.55,1.87-23.56l-16.58-2.22c-3.22-.43-8.12-.63-9.51-4.43-1.58-4.33-2.23-9.59-2.74-14.46-5.14-3.2-12.89,4.04-23.83-4.63l-10.02,7.56c-1.63,1.23-3.32,3.68-3.76,5.82-.85,4.11,10.2,13.22.27,20.44l-15.89,11.55,11.85,15.35,17.72-11.31c7.58-4.84,12.84,2.72,18.88,11.34,2.98,4.26,9.41,7.2,14.05,3.33ZM396.7,589.5q0-1.22,0,0,0,2.34,0,0Z"/>
    <path class="st0" d="M360.48,520.42c-4.19,1.75-6.66,3.37-8.07,8.45l-7.09-4.07,1.41-12.28c5.15,1.42,9.61,4.64,13.75,7.9Z"/>
    <path class="st0" d="M396.95,594.32l1.17-1.94-1.17,1.94Z"/>
    <path class="st0" d="M396.7,589.5q0,2.34,0,0,0-1.22,0,0Z"/>
    <path class="st0" d="M356.37,535.63l-.99-1.14.99,1.14Z"/>
  </g>
  <path class="st0" d="M576.07,422.45c10.65,17.44,6.83,37.29-8.84,50.08l-31.34,25.57-9.55,8.57c-3.76,3.37-11.09,4.78-13.45-.91-1.75-4.23-.13-10.43.16-14.9-2.62-1.57-8.98-3.8-8.65-7.55.4-4.51,2.53-9.3,3.9-13.73l-19.31-8.91c-2.13-.98-2.31-6.78-1.45-8.97l8.18-20.68-14.13-7.76c-4.41-2.42-3.43-6.07-2.51-9.96l4.4-18.49,17.1-16.84c10.32-10.16,30.74-8.19,41.82,3.96,2.74-1.68,5.89-3.92,8.05-6.12l10.38-10.57c-9.57-5.01-17.63-11.96-18.6-22.6-.71-7.74.28-15.97,5.77-21.37l27.8-27.32,47.8-46.99,20.6-19.62c13.12-12.5,40.58-14.93,56.12-2.46l6.46-7,18.71-23.42c-2.98-34.5-25.46-61.61-56.27-76.41-6.28,7.2-14.35,11.45-24.11,10.6-14.29-1.24-25.44-11.98-26.72-25.91s7.15-26.8,21.52-30.76c3.6-.99,10.14-1.07,13.91-.16,15.26,3.7,24.16,18.16,21.56,32.89l16.09,9.46c9.89,5.82,17.21,13.7,24.59,22.45,9.44,11.2,15.36,23.72,20.57,38.23,15.07-36.67,12.42-78.22,4.15-117.06-10.84-1.91-19.17-8.16-22.87-16.93-4.56-10.81-2.78-21.36,4.4-30.59,8.68-11.16,25.03-13.24,36.87-6.16s17.58,22.94,11.81,35.85c-3.34,7.47-8.18,12.85-15.91,15.4l3.93,22.05,2.85,26.33-.06,21.36c-1.78,25.46-7.29,50.18-20.84,72.23-8.4,13.67-19.28,25.01-29.94,37.16l12.44,13.92c16.4-17.24,29.63-36.13,42.03-56.72,10.37-17.21,21.72-33.05,34.79-48.1l13.44-13.78,27.37-22.51c-5.49-15.89,2.79-33.28,18.75-38.26,5.79-1.81,10.04-1.75,16-.14,14.87,4,24.2,19.34,20.8,34.53s-18.4,25.9-33.67,22.4c-5.12-1.17-9.33-3.59-13.55-6.24-26.83,18.06-49.04,43.33-66.59,70.9l23.39-1.91,21.09,1.99c17.12,1.62,33.24,6.99,49.38,12.03,5.72-13.47,19.28-20.48,33.28-17.71,12.4,2.45,22.73,14.13,22.6,27.6-.09,9.42-2.97,17.41-10.29,23.02-11.1,8.5-26.45,9.17-36.83-.15-5.39-4.84-9.16-10.17-9.85-17.75-17.38-5.92-35.71-10.98-54.26-13.06l-8.4-.94c-13.72-.81-27.14.65-40.61,3.82-11.55,18.98-24.37,35.84-39.18,51.73,13.1,20.09,9.37,46.21-7.45,62.69l-31.86,31.21-9.82,9.21-37.64,37.35-8.94,8.12c-9.22,11-26.04,13.65-36.84,3.2l-7.24-9-15,14.59-2.79,2.01c-.76.54-.03,3.03.51,3.9ZM757.99,24.67c-.71-3.53-4.89-7.5-7.97-8.73-6.94-2.76-13.51-.37-17.29,4.69-4.13,5.53-3.38,12.93.91,17.85s11.57,6.13,17.15,2.98,8.8-8.81,7.2-16.79ZM854.22,100.1c1.36,8.55,10.06,13.01,17.88,10.93,7.08-1.88,12.24-9.57,10.29-17.06-1.94-7.47-9.43-12.96-17.22-10.8s-12.32,8.3-10.95,16.93ZM651.85,113.65c7.25-3.05,10.86-10.09,9.07-17.3-1.49-6-7.07-10.86-14.05-10.69-6.21.15-12.26,4.6-14.18,11.51-1.38,4.98,1.41,10.56,4.89,13.47,3.98,3.34,9.03,5.21,14.28,3ZM908.55,199.92c-6.8-1.94-12.86.16-16.67,5.3-5.16,6.94-2.42,16.4,4.64,20.47s16.47,1.33,20.19-6.24c3.51-7.14.51-17.06-8.16-19.53ZM625.14,399.82l38.63-37.81,32.4-31.56,24.11-24.06c4.28-4.27,6.17-12.79,6.69-18.92.76-9.08-3.23-18.32-8.99-24.64l-8.2-9-17.82-18.03c-12.01-7.31-27.24-8.19-37.82,1.92l-25.96,24.83-53.88,52.79-16.39,16.1c-2.22,2.18-2.47,9.47-1.05,12.19,2.63,5.04,7.22,7.89,11.88,10.25,17.31,11.81,29.58,28.03,40.47,45.68,3.14,5.08,11.59,4.51,15.93.26ZM565.44,408.55l8.34-7.51,11.94-11.61-13.39-14.43-8.26,7.42-11.29,10.89,12.65,15.24ZM522.99,468.07l-2.78,10.02,8.15,7.5,29.62-24.32c6.25-5.13,11.08-12.1,9.88-20.37-.72-4.98-2.34-10.05-5.34-13.62l-16.04-19.16-8.8-10.09c-4.39-5.03-8.64-10.06-15.66-11.42-4.76-.92-9.46.47-13.03,3.6l-11.92,10.5-3.13,12.7,16.88,9.59c.34,2.48.85,6.89,0,8.96l-8.13,19.75,13.67,5.47c4.65,1.86,8.42,4.38,6.61,10.9Z"/>
</g></svg>