<?xml version="1.0" encoding="UTF-8"?>
<svg id="Layer_1" xmlns="http://www.w3.org/2000/svg" version="1.1" viewBox="0 0 1000 1000"><g transform="translate(0.00,68.82) scale(0.964916)">
  <!-- Generator: Adobe Illustrator 30.5.1, SVG Export Plug-In . SVG Version: 2.1.4 Build 3)  -->
  <defs>
    <style>
      .st0 {
        fill: #2e2a6b;
      }
    </style>
  </defs>
  <path class="st0" d="M864.48,608c-1.46,4.16-7.33,3.42-9.29,1.73-3.21-2.75-3.41-5.62-2.06-9.55l18.49-53.84-12.84-30.72-6.67-17.45c-3.22-8.42-8.71-12.86-5.18-17.52,1.13-1.5,4.74-3.04,7.02-2.4,3.2.9,7.97,3.66,9.17,6.83l20.31,53.7c1.97,5.21,1.98,9.35.08,14.82l-5.92,17.07-13.11,37.33Z"/>
  <path class="st0" d="M683.06,519.56c0,4.52-2.23,7.52-5.91,8.17-2.7.48-8-1.73-8-5.49l-.08-63.83-29.64-42.4c-2.18-3.12.39-8.13,2.7-9.12,3.84-1.65,7.02-.71,9.46,2.81l27.82,40.09c2.44,3.52,3.75,6.83,3.74,11.34l-.09,58.43Z"/>
  <path class="st0" d="M884.75,611.14c-1.48,4.32-4.17,6.3-8.32,6.12-3.5-.15-6.62-4.88-5.16-9.05l18.72-53.2c1.39-3.96,3.42-7.75,7.09-9.97l47.4-28.69c3.16-1.91,7.85,1.91,8.46,4.42,1.04,4.25-.78,7.39-4.6,9.65l-45.04,26.73-18.55,53.98Z"/>
  <path class="st0" d="M702.57,459.39l.14,63.65c-.02,2.85-4.96,5.04-7.18,4.97s-6.35-3.07-6.36-6.01l-.12-60.91c0-3.23.74-6.85,2.59-9.42l30.51-42.31c2.53-3.5,7.04-4.09,9.94-1.75,2.24,1.81,3.88,6.09,1.62,9.19l-31.15,42.6Z"/>
  <path class="st0" d="M862.59,545.01c-4.76,5.28-13.45,2.34-15.67-3.6l-16.54-44.33c-1.58-4.23.52-8.48,4.13-9,4.42-.64,6.51,1.29,8.26,5.46l18.63,44.26c.71,1.7,2.73,5.5,1.19,7.21Z"/>
  <path class="st0" d="M920.17,568.61c-4.18,2.43-9.36.74-10.05-3.12-.97-5.4,1.42-7.33,4.99-9.41l34.04-19.91c3.55-2.08,7-2.71,10.02.54,2.14,2.3,2.88,7.59-.8,9.73l-38.19,22.18Z"/>
  <path class="st0" d="M660.65,455.05c2.84,3.91,3.7,8.33-.15,10.92-4.22,2.84-7.75.98-10.44-2.79l-24.19-33.99c-2.22-3.12,1.08-7.17,3.47-8.34,3.65-1.77,6.54.14,8.82,3.27l22.49,30.93Z"/>
  <path class="st0" d="M719.98,466.3c-1.85,2.48-8.22.84-9.42-1.03-1.46-2.27-1.86-5.77.21-8.52l14.13-18.79,11.57-16,10.38,2.72c1.47.38.77,4.63-.19,5.92l-26.68,35.72Z"/>
  <path class="st0" d="M458.12,542.63c6.63-2.1,12.74,1.86,14.52,7.48,1.93,6.09-1.27,12.93-7.25,14.71s-12.15-1.1-14.53-6.95.27-13.02,7.26-15.24Z"/>
  <path class="st0" d="M292.02,523.73c7.41-.45,12.03,4.87,12.31,10.9.3,6.74-4.02,11.8-10.98,12.16-5.75.3-11.54-4.46-12.19-10.33-.7-6.23,3.85-12.3,10.87-12.73Z"/>
  <path class="st0" d="M406.52,507.39c6.19-1.18,11.85,3.35,13.36,8.6,1.92,6.67-2.55,12.78-8.37,14.05-6.86,1.5-12.8-2.25-14.17-8.64s2.16-12.67,9.18-14.01Z"/>
  <path class="st0" d="M489.53,491.47c6.25-1.34,12.09,3.27,13.39,8.46,1.7,6.77-2.42,12.75-8.44,14.12-6.57,1.49-12.86-2.24-14.28-8.51s2.71-12.65,9.33-14.07Z"/>
  <path class="st0" d="M354.64,500.11c3.93,5.32,2.3,11.48-1.93,15.13-4.6,3.97-11.2,3.98-15.61-.47s-5.07-10.24-.8-15.8,13.69-5.16,18.34,1.15Z"/>
  <path class="st0" d="M370.13,550.68c6.69-1.61,12.54,3.12,13.8,8.23,1.63,6.63-2.3,12.84-8.41,14.08s-12.28-1.76-14.02-7.78c-1.62-5.57,1.73-12.87,8.63-14.53Z"/>
  <path class="st0" d="M532.69,563.72c-5.86,1.21-12.34-3.33-12.68-9.47-.2-3.52.14-6.86,2.14-9.49,1.52-2,5.76-3.68,8.74-3.82,7.26-.34,11.6,4.61,11.52,11.12-.07,6.07-2.81,10.23-9.73,11.66Z"/>
  <path class="st0" d="M679.83,588.37l-16.76,12.68c.56-8.7,4.37-13.15,10.31-18.61l6.45,5.93Z"/>
  <path class="st0" d="M702.72,523.04l-.14-63.65.14,63.65Z"/>
  <g>
    <path class="st0" d="M252.16,636.86c-36.13,3.73-74.56,19.34-105.33,37.92l-25.02,15.1c-14.05,8.48-27.48,16.76-42.53,23.42-18.96,8.4-37.87,13.63-58.92,15.04-5.59,6.12-7,15.18-3.08,22.68,1.61,3.08,5.5,3.82,8.83,4.19,24.56,2.77,47.11,10.46,68.65,22.26l42.4,26.53,34.99,22.08c48.41,30.55,109.53,45.99,166.31,49.56l16.1,1.01,25,.99,43.13.98,107.85-.03,53.09-.94,28.98-1,17.51-.86,14.05-.9,14.95-1.04,12.93-1.04c61.24-4.92,148.74-24.35,202.21-54.45l44.22-24.89c22.92-12.9,46.04-23.62,72.01-28.82l26.05-4.27c6.29-1.03,6.44-22.46-.05-23.48l-18.43-2.91c-26.4-4.16-50.82-13.33-74.7-25.15l-27.54-13.63c-22.63-11.2-45.51-20.66-70.33-27.12-.73,12.52-9.78,19.54-21.45,19.38-10.43-.14-21.43-6.01-21.73-17.55l-.28-10.55-9.45-1.62-26.93-3.73c4.96-3.74,6.49-7.79,5.2-14.28l27.7,3.14c-6.43-9.36-9.8-19.14-2.53-22.41,2.25-1.01,7.71.08,8.65,2.95,2.72,8.25,7.4,12.78,15.75,15.58,2,.67,4.22,5.4,3.63,7.36-.74,2.46-3.19,4.47-6.24,5.66l-1.27,8.69c-.6,4.11-1.06,8.41,2.66,10.82,2.62,1.71,8.3,2.99,10.53-.84,1.92-3.3,2.29-8.37,2.76-12.25l.43-3.57c.09-.73-1.42-1.59-2.38-2.42-2.98-2.58-1.59-10.33,2.49-10.9,7.94-1.11,14.23-3.26,18.31-10.32,1.43-2.48,5.31-3.69,7.94-3.03,2.3.57,5.56,3.69,5.35,7.12s-3.41,8.85-6.19,10.78l-8.58,5.97c-.66.46-2.04,1.41-1.08.76,21.63,6.44,41.44,12.79,61.18,22.47l47.02,23.04c22.9,11.22,46.35,19.85,72.06,21.63,9.44.65,18.7,2.89,23.38,11.99,6.85,13.33,5.01,33.47-7.66,41.66-5.33,3.45-11.62,2.94-17.69,3.7-24.2,3.01-46.78,11.02-67.9,22.8l-27.77,15.48c-38.97,23.26-79.96,41.2-124.18,52.66-40.35,10.46-80.71,17.28-122.15,20.52l-13.98,1.09-13.98.95-15.5.84-24.96.98-39.2,1.04-156.7.04-32.16-1.07-18.54-.83-13.92-.97-12.85-1.14c-44.97-4-87.89-14.57-128.78-34.04-26.2-12.48-49.41-28.62-74.05-43.79l-34.75-21.4c-19.52-10.55-40.35-17.75-62.49-20.35-8.46-1-15.55-3.64-19.52-11.8-4.99-10.28-4.89-23.07-.04-33.38,3.72-7.89,10.35-11.27,18.51-12.01,23.88-2.16,46.34-9.73,66.91-21.88l59.05-34.91c30.98-17.38,63.56-29.46,98.87-34.25l1.82-.88c.42-.2-.48-.64-1.55-1.08-7.23-7.14-12.83-16.34-6.44-21.56,2.7-2.21,8.44-1.9,10.21,1.72,7.88,16.12,18.47,8.58,20.93,17.86.79,2.99-1.84,6.53-4.78,8.5l-.02,17.57c3.26,2.65,9,3.41,12.74.59,2.01-1.52,2.39-6.69,2.12-9.8,6.11-1.43,11.58-4.12,16.71-7.91l9.33-6.91,23.44.65,20.51.91,14.34.59c-2.22-4.7-3.03-7.86-1.81-11.79.5-1.59,3.97-3.36,5.63-3.69,9.01-1.75,5.99,12.92,21.2,15.35,3.42.54,5.78,3.54,5.84,6.61.07,3.91-1.5,6.75-6.21,7.74l.43,13.35c.15,4.57,4.48,7.36,8.69,6.59,1.9-.35,4.55-1.22,5.69-2.11,2.96-2.3-.6-9.68,3.04-12.98l6.11-5.55-9-.78c-1.91-.17-4.11-4.24-3.94-6.16.19-2.11,2.98-5.9,5.23-6.13,18.01-1.88,13.48-17.64,24.83-14.34,2.17.63,5.06,4.27,4.58,6.86-.64,3.46-2.34,6.53-3.88,9.98l32.95.55,34.12.67,2.46.36c3.89.56-9.59-7.41-8.3-18.77.27-2.34,3.52-4.49,5.68-4.83,8.97-1.44,7.95,13.06,21.23,15.31,3.65.62,6.11,3.06,6.36,6.28.29,3.73-1.46,6-5.05,7.99-.22,4.87-.68,11.18.49,16.14,1.2,5.09,12.49,5.08,13.7,0s.77-11.24.32-15.99c-2.31-1.97-4.9-5.39-4.49-7.81,1.57-9.28,14.31-3.42,20.47-16.22,1.61-3.35,4.19-5.07,7.92-4.82,2.69.18,6.51,3.68,6.08,7.45-.81,7.01-6.09,12.59-11.99,16.45l17.33.99,24.59.79,24.32.9,11.51.6-6.26-12.12c-1.92-3.73,1.5-7.94,4.45-8.66,4.23-1.04,8.03.08,9.72,4.5,5.07,13.19,19.47,9.1,20.05,17.55.21,3.11-2.88,6.01-6.17,7.36l.13,16.34c.02,2.91,5.52,4.22,8.11,4.16,8.48-.2,8.37-9.68,7.15-19.91-3.5-1.96-5.6-4.54-5.75-7.81-.11-2.53,3.41-5.8,6.17-6.13,16.91-2.05,14.44-19.02,25.16-13.82,3.24,1.57,5.04,5.68,3.46,9.22-1.99,4.45-4.44,7.43-8.07,11.8l1.36.32,13.06.92,14.01,1.08,10.48,1.57c-3.97,5.74-3.28,10.1.57,14.65l-10.06-.71-13.99-.99-10.79-.76-11.55-.38c2.27,14.27-6.37,24.04-19.34,25.44-10.49,1.13-20.61-4.27-24.23-14.88l-.34-13.43-20.41-.75-25.77-1.07-26.1-.94-16.79-.63c1.94,8.14-.3,14.44-6.57,19.49-4.76,3.83-11.75,5.21-18.12,4.61-12.86-1.22-20.32-12.42-18.81-24.94l-19.7-.57-34.08-.94-30.71-.61c-1.73,2.57-1.45,6.19-1.16,9.2,1.21,12.51-8.6,21.3-20.55,22.08s-23.69-6.75-23.86-19.27l-.19-13.78-14.95-.79-17.48-.92-25.9-.99-22.6-.51-.29,10.75c-2.43,11.25-13.16,16.12-23.75,15.57-12.58-.66-21.22-10.24-19.94-24.52Z"/>
    <path class="st0" d="M736.54,720.46l-16.34-1.05-19.02-1.01-15.55-.82-24.97-1.02-40.14-.92-44.83-1.03-55.12-.97-43.84-1.03-40.19-.95-37-.99-33.84-1.05-38.02-.98-44.58-.21-13.97.7-14.99.69-15.09,1.16c-45.07,3.47-88.77,12.72-131.97,25.99-2.08.64-5.32.01-5.87-1.33-.73-1.76.42-5.48,2.13-6.03l22.29-7.08c41.71-13.24,84.28-20.5,127.79-22.89l19.27-1.06c23.97-1.32,47.84-.64,71.89.05l36.93,1.05,33.21.96,36.83,1.04,45.17.95,48.81,1.03,49.15.96,38.82,1.04,32.18.94,24.94.99,14.57.83,16.99.99,16.94,1.03,13.97.99,12.91,1.14c55.73,4.93,110.6,12.73,165.02,26.52,1.89.48,3.44,1.73,4.09,2.72.81,1.23-.47,5.56-2.37,5.18-56.06-11.28-111.7-20.07-168.63-24.44l-15.95-1.23-11.62-.85Z"/>
    <path class="st0" d="M925.91,751.89c2.92-.27,5.71,1.17,6,3.87.25,2.29-2.23,3.98-4.75,4.22l-30.21,2.81-12.81,1.1-12.01.99-12,.96-13.01.99-14.01,1.05-12.97.92-18.97,1-20.97,1.08-18.01.93-16.57.85-28.09.9-26.84,1.09-32.17.92-32.88,1.07-62.11.94-140.8.04-47.17-.99-29.83-1.04-24.19-.95-19.83-1.07-18.49-.83-13.18-.85-16.95-1.09-12.99-.94-13.01-1.01-12.82-1.14c-36.18-3.22-71.51-7.92-107.36-14.18-1.57-.27-3.72-1.59-4.23-2.62s-.23-3.48.58-4.29c1.08-1.09,3.61-1.25,5.41-1.01l49.4,6.46,28.03,3,42.95,3.99,12.03.81,14.02.95,15.93,1.08,14.05.89,17.48.86,21.16.96,26.8,1.04,33.04,1.01,60.06.92c34.16.52,67.77.46,101.95-.01l67.05-.93,41.84-1.02,33.21-.95,30.81-1.05,28.17-.93,21.84-1.08,20.19-.95,20.81-1.08,19.48-.82,12.13-.88,14.06-.98,16.99-1.03,18.96-1.06,12.97-.93,11.89-1.06,9.91-.92Z"/>
    <path class="st0" d="M433.12,830.15l1.92.99h32.16s1.92-1.03,1.92-1.03h7s1.93,1.02,1.93,1.02h37.14s2.32-.99,2.32-.99l18.1-.56,35.06-.92,24.95-.99,14.52-.87,12.97-.93,13-1.01,13.01-1.1c74.97-6.33,179.37-25.16,251.09-48.64,2.04-.67,5.32,1.01,5.83,2.58.43,1.31-1.06,4.41-2.45,4.84l-49.05,15.06c-69.83,19.02-140.61,31.41-212.55,37.13l-13.89,1.1-15.92,1.06-13.18.86-19.52.84-26.83,1.09-46.99.91h-59.07s-46-.92-46-.92l-26.01-1.02-18.14-1.02c-78.52-4.43-159.18-24.16-229.12-60.32l.14-5.25c.03-1.08,3.55-1.13,4.58-.68l20.88,9,40.59,15.57c49.43,16.64,100.02,27.1,151.93,30.66l15.15,1.04,20.99,1.03,30.1.92,21.45.55Z"/>
    <path class="st0" d="M664.42,620.93c-3.29-.78-5.84-5.23-5.33-8.1.64-3.64,3.06-5.6,5.91-7.89l9.4-7.55c10.19-8.19,21.17-14.2,33.78-18.11l9.36-23.77,11.2-27.72c1.65-4.09,3.53-6.35,8.07-5.81,3.76.45,6.92,4.61,5.13,9.08l-19.66,49.14c-1.59,3.97-3.91,8.5-6.25,11.41-15.79,4.9-31.54,10.37-39.03,24.48-2.22,4.19-7.01,6.17-12.58,4.86Z"/>
    <path class="st0" d="M747.37,641.14c-.23,5.69-.34,7.7-4.21,10.15-3.66,2.31-7.28,2.22-10.34-.42-3.32-2.86-3.68-7.23-1.03-11.13,6-8.83,7.92-20.11,2.24-29.62l-10.29-17.2,24.22-59.86c1.33-3.3,5.39-3.49,8.27-2.52,2.09.71,5.1,4.4,3.86,7.5l-20.9,52.22c-.16,1.63,1.29,5.14,2.29,6.49,7.38,9.92,11.13,21.66,9.21,34.11l-3.32,10.29Z"/>
    <path class="st0" d="M281.82,625.98c-4.59-.27-5.24-5.34-4.75-8.23,1.29-7.67,14.68-3.35,19.59-14.87,1.65-3.87,5-6.27,8.81-5.53,3.11.6,6.87,4.84,5.6,8.9-3.75,12.03-16.05,20.49-29.24,19.72Z"/>
    <polygon class="st0" points="517.51 830.15 515.19 831.14 478.05 831.14 476.12 830.12 517.51 830.15"/>
    <polygon class="st0" points="469.12 830.12 467.2 831.14 435.04 831.14 433.12 830.15 469.12 830.12"/>
  </g>
  <g>
    <path class="st0" d="M447.62,482.1c-43.92,21.56-70.9-2.81-90.64-4.78l-9.68-.97-26.02,3.96c-28.72,4.37-61.44-7.97-76.81-32.38-10.51-16.69-9.61-40.38-1.25-57.79,4.57-9.51,9.9-18.86,17.42-26.59l30.52-31.38c26.36-27.11,38.96-56.85,23.11-93.3-8.36-19.21-20.29-36-34.14-51.72l-9.44-10.72c-5-.39-11.18-.72-15.1-3.75l-32.17-24.84-18.12-14.92c-4.24-3.49-6.87-8.29-8.62-13.55-5.71-.49-12.91-.89-18.09-3.65l-11.85-6.33-72.9-41.94c-7.15-9.21-10.1-17.29-5.84-28.24-22.82-9.54-45.79-16.88-69.36-24.78-5.2-1.74-4.88-11.63-.16-13.73,3.08-1.37,7.41-.51,10.6.51,22.7,7.25,44.63,15.18,66.78,24,1.74-2.81,4.07-6.39,5.97-8.25,7.06-1.6,12.52-5.65,14.9-12.21,6.65-3.33,13.06-1.33,19.5,1.21,16.88,6.67,32.83,13.97,48.15,23.88,8.11,5.24,17.07,9.24,23.86,16.12,5.33,5.4,9.75,11.67,16.08,15.9,2.58,1.73,3.97,2.95,5.52,6.07,12.08-.73,23.14,3.56,33.08,11.35l30.33,23.76c5.18,4.06,9.49,9.05,14.03,13.98,3.73,4.04,3.51,10.74,3.87,16l.5,7.35c27.99,23.35,48.78,54.7,61.85,88.34s29.49,58.88,61.27,77.73c15.1,8.95,30.55,15.44,46.69,22.31,31.32,13.35,63.11,31.84,77.85,63.12,11.62,24.65,5.55,52.66-16.69,69.03-14.67,10.8-33.59,14.8-51.91,12.63-14.97-1.77-29.2,1.73-43.1,8.55ZM202.01,94.58l10.47-16.21c1.96-3.04.2-8.46-3.15-10.68-25.93-17.11-52.65-32.51-80.53-46.07-5.83-2.83-10.83-1.21-13.54,3.73-6.7,12.25-18.24,23.06-6.21,29.92l77.62,44.24c2.6,1.48,6.44,2.14,9.33,1.3,2.11-.62,4.26-3.54,6-6.23ZM276.2,156.78l14.48-17.21c1.9-2.26,2.84-5.73,2.5-8.83-.25-2.29-2.69-4.72-5.05-6.74-15.79-13.48-31.86-26.16-49.24-37.52-5.18-3.39-9.94.6-12.74,4.54l-13.03,18.36c-1.91,2.7.69,7.7,3.16,9.63l49.31,38.54c2.32,1.04,8.86,1.32,10.62-.77ZM471.49,458.45l39.03-.9c20.63-2.52,39.66-19.7,38.77-40.46-.17-4.05-.38-8.55-1.79-12.37-5.92-16.02-16.82-28.49-30.69-38.35-16.59-11.79-34.44-19.92-53.35-27.61-48.66-19.78-80.85-45.46-100.62-95.45-10.46-26.43-22.89-51.35-42.54-72.34l-11.67-12.46-6.51-5.73-15.63,17.66c34.27,38.74,67.62,89.31,40.57,139.66-5.4,10.05-11.48,19.37-19.49,27.59l-32.93,33.82c-9.68,9.94-16.29,21.5-20.57,34.53-5.77,17.56.65,34.87,15.35,46.02,16.56,12.56,38.39,16.16,58.76,11.19,18.61-4.54,36.82-2.11,54.24,5.55,43.03,18.93,63.83-9.77,89.06-10.36Z"/>
    <path class="st0" d="M375.21,387.94c0,12.1-9.81,21.92-21.92,21.92s-21.92-9.81-21.92-21.92,9.81-21.92,21.92-21.92,21.92,9.81,21.92,21.92ZM360.79,387.32c-.19-3.61-4.85-7.64-8.29-7.08-4.44.72-7.26,5.08-6.83,8.03.72,4.93,3.9,7.24,8.02,6.93,3.68-.28,7.37-2.74,7.1-7.88Z"/>
    <path class="st0" d="M427.79,428.67c0,12.08-9.79,21.87-21.87,21.87s-21.87-9.79-21.87-21.87,9.79-21.87,21.87-21.87,21.87,9.79,21.87,21.87ZM403.15,421.54c-4.57,1.75-5.93,7.1-4.28,10.38s6.17,5.26,9.44,3.93c3.91-1.59,6.1-5.93,4.51-9.99-1.19-3.05-5.64-5.87-9.68-4.32Z"/>
    <path class="st0" d="M474.92,387.46c0,12.06-9.78,21.84-21.84,21.84s-21.84-9.78-21.84-21.84,9.78-21.84,21.84-21.84,21.84,9.78,21.84,21.84ZM449.04,393.54c3.88,3.14,7.57,1.07,9.8-1.52s1.75-7.61-.3-9.84c-2.42-2.63-6.95-2.86-10.22-.69-1.54,1.02-3.45,4.35-3.27,6.04s2.29,4.64,3.99,6.02Z"/>
  </g>
</g></svg>