<?xml version="1.0" encoding="UTF-8"?>
<svg id="Layer_1" xmlns="http://www.w3.org/2000/svg" version="1.1" viewBox="0 0 1000 1000"><g transform="translate(0.00,72.05) scale(1.271941)">
  <!-- Generator: Adobe Illustrator 30.5.1, SVG Export Plug-In . SVG Version: 2.1.4 Build 3)  -->
  <defs>
    <style>
      .st0 {
        fill: #2e2a6b;
      }
    </style>
  </defs>
  <path class="st0" d="M509.54,537.82c21.03-36.22,25.43-69.43-.66-104.52-2.52-3.4-4.09-4.97-7.4-7.62-18.34-14.67-39.57-24-63.51-25.34-7.02-.39-14.26-.79-21.2-.08-14.81,1.51-28.47,4.53-42.56,9.74-29.73,10.99-57.59,24.86-86.46,38.11-9.17,4.21-19.25,2.47-27.64-2.72-.21,14.18-8.81,24.08-21.2,30.07l-76.02,36.76c-10.14,4.9-21.72,3.13-30.48-2.42-.57,13.33-8.35,22.93-19.36,28.67l-15.27,7.97-71.88,39.8c-3.2,1.77-7.03.36-8.31-2.27-1.9-3.9.22-6.66,3.82-8.62l87.92-47.83c2.31-1.26,3.56-1.84,5.32-3.57,8.04-7.91,8.77-20.5,1.93-28.74-7.63-9.18-18.89-8.83-28.9-3.14l-79.05,44.97c-2.88,1.64-7.15.08-8.05-2.2-1.55-3.93.18-6.66,3.62-8.59l83.07-46.72c9.75-5.48,21-2.73,30.44,1.78,1.8-9.92,5.8-20.58,15.2-25.21l80.33-39.61c11.38-5.61,23.43-5,34.68,2.79,1.32-9.99,6.72-18.87,15.9-23.32,31.33-15.21,62.54-29.03,94.76-42.11,4.06-1.65,8.66.13,9.3,4.58,1.18,8.13,8.36,12.98,16.11,10.91,7.39-1.97,11.48-11.27,7.2-18.51-1.67-2.83-2.9-8.62,1.3-10.1l42.25-14.9c29.5-10.4,51.23-24.11,67.64-51.18l21.04-40.85c2.29-16.55.93-32.39-3.9-48.24l-8.65-26.45c-13.29-40.64-12.28-75.07,3.53-114.56-10.37-7.21-13.36-20.91-7.19-32.13,5.72-10.39,18.41-15.2,30.43-10.72,10.86,4.04,17.59,16.45,14.65,28.5-3.12,12.77-14.58,20.66-27.61,18.62-10.28,27.72-14.69,54.07-9.01,83.23s17.74,50.44,20.25,76.9c23.73-43.48,45.97-79.28,86.87-107.95,12.3-8.62,23.65-19.58,30.68-33.04-5.54-7.42-8.59-16.75-4.67-26.05,3.35-7.95,10.68-14.42,20.57-15.39,15.66-1.54,28.13,12,26.61,27.16-1.57,15.68-17.38,26.2-32.99,20.75-8.11,14.05-18.77,25.49-32.11,34.78-21.39,14.9-38.74,32.81-53.79,54.21-17.3,24.6-31.15,50.49-44.26,77.56-6.72,13.88-13.26,26.81-21.03,40.02-16.76,28.49-40.31,44.47-71.35,55l-37.64,12.77c3.38,10.81.23,20.13-7.14,27.16-4.17,3.98-8.84,5.29-14.73,5.15-10.04-.23-18.55-4.78-22.48-14.9-31.18,13.08-61.42,26.27-91.35,41.07-8.78,4.34-10.03,15.94-6.24,22.68,4.85,8.64,14.51,11.58,23.33,7.35,25.22-12.11,49.79-23.76,75.8-34.18,20.65-8.27,41.53-14.14,63.71-14.74,23.78-.64,46.69,4.09,67.2,15.82,25.33,14.49,42.82,38.97,46.63,67.98l.71,9.03c1.73,22.04-6.85,42.39-17.89,61.27l-15.47,26.47c-8.73,14.93-8,38.98.92,55.37,15.52-3.65,29.63,6.66,31.07,21.42s-10.97,28.72-26.88,27.03c-9.74-1.03-17.37-7.74-20.2-15.42-3.71-10.05-1.2-19.83,6.29-27.37-11.39-21.18-12.06-45.34-1.29-66.76l14.74-25.4ZM524.49,12.18c-7.24,2.28-10.81,9.98-8.45,16.72s9.96,10.2,16.53,8.09c7.05-2.27,10.44-9.98,8.36-16.49-2.2-6.88-9.37-10.55-16.44-8.32ZM684.66,51.11c0-7.25-5.88-13.12-13.12-13.12s-13.12,5.88-13.12,13.12,5.88,13.12,13.12,13.12,13.12-5.88,13.12-13.12ZM160.28,500.92l79.76-39.41c9.43-4.66,10.81-18.14,6.71-26.48-3.79-7.73-15.06-14.41-24.3-9.89l-84.48,41.34c-10.06,4.92-11.2,19.64-5.85,27.71,6.21,9.4,17.41,12.04,28.15,6.73ZM508.15,636.16c-7.91,2.71-10.39,10.51-7.62,17.2,2.6,6.27,9.97,9.49,15.93,7.43,7.25-2.5,10.58-10.07,8.5-16.54-2.23-6.93-9.49-10.6-16.81-8.09Z"/>
  <path class="st0" d="M783.78,306.94c5.42,12.13,1.41,25.04-9.03,31.6s-23.68,4.7-31.89-5.35l-27.37,15.71c-16.77,9.63-34.05,16.61-53.55,18.56-21.23,2.12-41.93.29-62.3-5.72l-42.49-12.55c-18.9-5.58-37.48-8.84-57.26-9.54-2.22-.08-5.08-1.88-5.78-3.4-.77-1.67-.36-5.44.89-6.84,8.63-9.7,16.04-19.11,23.62-29.54,9.16-12.61,18.52-24.38,30.54-34.48,16.02-13.46,34.78-21.81,55.16-26.84l37.05-9.15c18.93-4.67,35.47-14.56,50.23-27.06-3.72-10.82-.34-21.8,8.43-28.43,8.22-6.22,19.89-6.67,28.78-.25,8.37,6.04,12.5,17.61,8.87,28.05-2.75,7.9-8.86,13.61-15.7,15.6-8.53,2.49-16.5.73-23.66-5.24-18.56,15.51-39.95,25.58-63.54,31.31l-33.01,8.02c-25.53,6.2-47.15,20.7-63.09,41.53l-27.18,35.54c19.49,2.12,39.17,6.42,58.5,12.35l17.07,5.24c45.16,13.86,87.74,16.95,128.11-10.59l22.28-12.73c-1.53-12.46,4.72-24.48,16.44-28.33s24.55.65,29.87,12.55ZM727.68,193.64c0-7.21-5.84-13.05-13.05-13.05s-13.05,5.84-13.05,13.05,5.84,13.05,13.05,13.05,13.05-5.84,13.05-13.05ZM758.03,305.21c-7.53,2.11-10.91,10.39-8.76,16.48,2.48,7.02,9.6,10.4,15.69,8.72,7.62-2.11,11.56-9.34,9.45-16.35-2-6.67-8.76-10.98-16.38-8.84Z"/>
  <path class="st0" d="M580.37,478.34l12.36,22.37c.97,1.76.99,4.01.74,6.95l3.69-.41c10.88,14.96,24.98,26.42,41.28,35.42,9.24,5.1,17.37,10.85,25.81,17.62,10.65-8.08,25.35-7.72,34.17,2.45,8.15,9.39,8.57,22.29.83,32.06-7.35,9.27-20.75,12.03-31.57,5.53-9.88-5.93-14.81-18.33-10.03-30.55-9.11-7.23-18.55-13.4-28.93-19.28-21.48-12.17-38.31-29.19-50.23-50.86l-16.69-33.5c-13.96-28.02-23.81-45.73-50.55-64.11-2.65-1.82-4.73-3.43-4.89-6.35-.17-3.13,2.46-5.88,5.78-6.48,16.1-2.9,31.48-4.8,47.85-4.13,38.54,1.58,73.65,15.43,103.08,40.01,23.58,19.7,39.4,31.22,71.59,36.02,4.4-9.1,12.71-14.21,21.88-14.35s18.33,5.01,22.21,13.75c6.43,14.52-.6,30.17-15.15,34.38-14.72,4.26-30.24-6.28-31.28-22.58-24.84-3.06-46.79-13.17-66.04-29.45-15.63-13.23-31.44-25.17-50.44-33.33-28.89-12.41-59.27-15.16-89.58-10.88,18.86,15.35,32.56,34.66,43.03,56.52l11.1,23.15ZM749.55,482.03c6.56,4.15,14.24,2.42,18.45-3.86,3.48-5.2,2.72-12.71-3.13-17.15-5.31-4.02-12.29-3.89-17.69,1.61-5.45,5.55-4.8,14.87,2.37,19.4ZM675.29,567.27c-7.16,3.16-9.75,11.18-7,17.37,2.91,6.57,10.68,9.36,17.14,6.56,6.42-2.78,9.64-9.98,7.17-16.48s-10.24-10.57-17.3-7.45Z"/>
  <path class="st0" d="M339.33,269.25c-.82,3.32-3.97,4.92-6.88,4.29-3.19-.69-4.81-3.92-3.99-7.3l10.3-42.34-28.01,5.14c-2.09.38-5.68-3.79-6.33-5.78l12.43-51.92c.75-3.13,3.71-5.01,6.61-4.59s5.43,3.76,4.58,7.23l-10.38,42.59,28.27-5.56c3.65-.72,6.39,2.98,6.21,6.28l-12.8,51.96Z"/>
  <path class="st0" d="M313.94,319.99c1.37,2.96.26,6.5-1.92,7.87-1.84,1.16-6.45.6-7.71-2.09l-18.47-39.43-18.62,20.28c-1.99,2.17-7.08,1.45-8.42-1.33l-21.83-45.27c-1.52-3.15-.47-6.95,2.44-8.24s6.25.11,7.78,3.28l17.91,37,18.63-19.84c1.28-1.36,5.69-1.65,7.07-.65s2.31,3.5,3.31,5.64l19.82,42.77Z"/>
</g></svg>