<?xml version="1.0" encoding="UTF-8"?>
<svg id="Layer_1" xmlns="http://www.w3.org/2000/svg" version="1.1" viewBox="0 0 1000 1000"><g transform="translate(0.00,4.01) scale(1.553060)">
  <!-- Generator: Adobe Illustrator 30.5.1, SVG Export Plug-In . SVG Version: 2.1.4 Build 3)  -->
  <defs>
    <style>
      .st0 {
        fill: #2e2a6b;
      }
    </style>
  </defs>
  <path class="st0" d="M428.31,140.11c8.97-2.57,18.16-6.94,23.61-12.76,22.56-24.13,20.87-58.51-.89-83.52l-3.9-3.86c-23.6-21.18-57.38-27.85-86.07-13.38l-10.25,5.88c-1.81,1.04-2.93,2.52-4.41,4.17-8.92,10-15.91,21.01-15.91,35.18v165.09c22.8.53,47.58-12.72,51.55-35.15.73-4.11,2.57-7.98,5.44-8.98,4.22-1.46,8.83-.58,10.79,1.6,3.1,3.45,3.5,7.86,1.28,11.25l-.72-5.06-1.75,5.47,3.22.42c-8.25,31.59-37.76,49.63-69.87,49.12l.41,309.01c.02,18.16,12.42,34.31,26.45,43.97,17.8,12.26,39.76,13.85,59.98,7.84,5.1-1.52,9.51-.46,11.79,3.53,2.45,4.28,1.32,10.78-3.53,13.2-5.62,2.81-12.1,3.63-18.6,4.62-34.39,5.24-68.16-10.93-85.73-41.39-6.33,10.88-13.72,19.33-23.47,25.88l-4.65,3.12c-27.38,18.39-69.38,17.59-96.49-1.92l-4.74-3.41c-25.3-19.64-37.79-51.6-35.23-83.56-17.89.99-34.32-1.8-50.87-8.03-59.07-22.22-92.84-87.37-73.36-148.53-40.28-34.7-40.33-93.88-14.67-137.71,2.51-.92,3.47-2.82,3.58-5.3,8.26-12.37,18.96-21.91,31.74-29.06-3.9-16.98-3.41-33.21.68-49.74,12.16-49.2,53.01-87.35,104.57-90.44C169.98,22.75,214.97-4.02,260.2.5c25.62,2.56,47.94,16.39,61.13,38.22,12.03-19.18,30.48-31.67,52.6-36.54,36.48-8.04,74.2,6.6,96.63,36.26,6.01,8.45,10.4,17.1,12.94,26.63,10.06.34,19.8,2.4,29.04,6.27,5.94,2.48,12.5,4.79,17.46,8.63,2.41,1.86,3.74,3.27,6.86,4.09,17.26,11.34,30.16,27.35,39.82,45.35l-1.33,2.76c-.25.52,1.81.24,2.65.2,10.85,22.9,15.97,51.6,8.68,76.74-.06,1.33.2,2.07,1.72-.31,4.35,2.19,9.13,5.29,13.03,8.82l4.25,3.84c3.88,3.51,8.07,8.45,10.99,12.86l5.18,7.83c10.33,15.6,15.26,34.02,17.32,52.46,3.51,31.4-7.99,65.49-32.14,85.82l-4.32,3.64c-10.1,8.5-24.55,17.95-30.45,8.25-1.77-2.9-2.04-10.4,2.37-12.48,27.98-13.15,46.02-39.54,46.65-71.03.62-31.2-13.02-67.43-40.73-83.3-14.79,29.71-39.55,44.27-71.55,49.15-32.17,4.91-61.51,23.2-64.78,56.76-.48,4.93-5.42,8.07-9.4,7.86-4.51-.24-9.43-4.3-9.02-9.61.98-12.88,5.8-25,13.06-35.37,18-25.71,43.14-34.42,73.06-39.32,35.66-5.84,60.65-35.79,59.64-72.13-1.31-46.89-36.17-91.91-84.77-98.39-.12,34.05-18.11,63.29-51.48,73.36-5.36,1.62-10.52.33-12.9-4.87-2.07-4.51-.19-11.1,5.92-12.85ZM117.64,373.33c5.83-2.43,11.45,1.25,12.63,6.03,1.5,6.08-1.94,9.75-7.4,12.18-23.74,10.57-50.62,10.58-74.44-.69-9.28,39.33,4.6,79.52,36.49,104.38,21.85,17.03,49.27,24.67,77.01,22.27,8.68-20.3,24.96-35.38,46.18-40.4,4.44-1.05,8.71-.29,10.9,2.57,2.64,3.45,2.62,7.17.49,11.11-1.64,3.04-4.92,3.95-8.58,5.02-18.16,5.29-32.2,20.55-35.21,39.89-3.87,24.81,5.69,50.3,24.7,66.91,24.36,21.29,60.9,23.13,86.98,4.14,13.82-10.06,24.19-25.57,24.21-43.09l.21-184.87c-33.16-.74-61.85,17.15-66.18,50.38-2.59,4.66-7.76,6.4-11.71,5.01-4.24-1.49-6.42-5.41-5.86-10.62,5.89-40.11,43.25-65.17,83.78-63.65l-.21-292.79c0-11.08-6.94-21.16-13.98-28.73-30.88-33.19-91.38-21.71-114.36,16.8-10.05,16.85-11.57,37.18-4.29,54.75,6.59,15.88,19.5,26.42,35.78,30.3,5.39,1.28,7.31,7.77,5.89,11.87-1.79,5.15-6.92,7.5-12.36,5.86-32.95-9-52.05-37.88-52.54-71.45-32.24,3.84-59.35,23.22-74.34,51.04-18.25,33.89-17.7,78.05,10.9,102.21l4.23,3.57c8.74,5.44,16.74,10.52,27.36,11.43l3.72,3.76c1.78,1.8,3.07,4.07,3.01,6.65-.09,3.89-5.79,9.42-11.39,8.23-26.69-5.69-47.99-23.25-59.96-47.76-37.74,23.5-51.64,81.51-31.54,119.46,14.63,27.61,44.66,40.98,75.01,33.53,4.9-1.2,9.69-3.16,14.87-5.32Z"/>
  <path class="st0" d="M502.47,615.91l.07-22.88c-17.09-2.07-32.39-8.49-45.57-19.35-1.65,2.66-3.54,4.52-6.59,6.33-2.11,1.25-3.93,4.08-5.58,6.13-2.05,2.56-3.4,4.02-3.2,7.58.18,3.24-1.17,6.76-3.26,8.56-2.42,2.09-6.49,3.2-10.14,2.55-6.6-1.18-11.98-6.76-14.21-13.19-1.41-4.06.56-8.79,3.22-11.61s7.57-3.11,11.53-3.11l15.88-15.45-9.64-15.75.59-6.99-1.94,2.53c-3.13-7.02-5.35-14.42-6.26-22.97l-25.78.07c-2.76,3.14-6.31,6.18-10.73,5.7-3.9-.43-8.03-2.81-9.95-7.07-3.95-8.79-.95-21.84,8.92-23.15,5.05-.67,8.36,1.98,11.8,5.51l14.39,1.06c1.59.12,4.85,3.47,5.92,2.41,1.56-1.55,3.31-2.82,5.49-3.61,2.57-14.94,7.95-29.25,17.91-41.61-.7-2.76-3.48-3.78-5.36-5.55l-11.32-10.68c-7.24,1.07-14.78-2.47-15.1-10.8-.18-4.73,3.82-10.95,7.54-12.75,1,.01,3.71,1.15,4.45.59l2.66-1.99-3.25-1.23c4.27-2.74,10.98-2.31,14.49,2.58,1.87,2.61,2.21,7.3,2.14,10.96l16.46,16.38c13.37-10.84,27.82-16.51,44.52-18.69l-.1-23.42c-3.34-3.03-6.65-6.72-5.7-11.88,1.67-9.05,10.13-11.92,19.83-10.06,5.45,1.04,8.66,4.94,9.65,9.6,1.04,4.93-1.53,9.05-5.51,12.16l-.11,24.3c9.16,0,16.62,2.83,23.47,5.86l-2.73,2.27,5.11-1.32c6.34,2.58,12.64,6.62,18.64,11.34l16.76-16.73c-1.09-6.68,1.28-12.35,7.65-14.37,5.41-1.71,12.17.43,15.02,6.63,5.55,3.21,7,11.03,2.73,15.74-2.93,4.43-7.49,5.31-12.26,4.87l-17.23,16.78c9.81,11.7,14.86,26.03,17.27,40.92l7.55,2.05,11.66-1.56,7.59-.26c2.77-3.64,6.06-5.26,10.03-5.37s7.87,1.52,9.87,5.54c4.64,9.3,1.54,23.03-7.9,24.42-4.84.72-8.89-1.29-11.74-5.57l-27.1-.05c-1.07,6.65-.44,14.3-4.89,15.88-1.7,2.42-1.62,5.33-2.04,8.41-.94,6.76-5.17,11.86-9.93,18.03l16.42,16.45c4.13-.16,9.01.08,11.79,3.03,2.33,2.47,3.81,7.38,2.92,11.42-1.44,6.53-7.26,11.91-13.89,13.55-3.81.94-8.25-.98-10.75-3.17-3.11-2.74-3.12-7.71-2.85-11.78l-16.02-15.96c-13.31,10.45-27.98,16.98-45.05,18.87l-.02,22.56c4.74,3.86,7.36,9.34,5.04,14.82-2.43,5.76-8.13,7.47-14.4,7.45-5.75-.02-10.98-1.86-13.4-6.49-2.88-5.52-1.02-11.5,4.51-15.46ZM576.75,509.74c0-36.14-29.3-65.44-65.44-65.44s-65.44,29.3-65.44,65.44,29.3,65.44,65.44,65.44,65.44-29.3,65.44-65.44Z"/>
  <path class="st0" d="M223.34,325.21c-.58,5.83,6.19,8.75,10.35,8.09,4.89-.78,7.43-4.59,8.18-9.62,2.24-15,2.2-29.15-2.5-43.87-9.31-29.15-34.5-51.62-64.92-55.95-5.49-.78-8.54,6.47-8.04,9.99.77,5.41,3.94,7.66,9.3,9.01,23.05,5.82,41.36,23.83,47.2,46.86,2.99,11.81,1.67,23.11.44,35.5Z"/>
  <path class="st0" d="M223.34,325.21c1.24-12.39,2.56-23.69-.44-35.5-5.84-23.03-24.15-41.04-47.2-46.86-5.36-1.35-8.53-3.6-9.3-9.01-.5-3.52,2.55-10.77,8.04-9.99,30.42,4.33,55.62,26.8,64.92,55.95,4.7,14.73,4.74,28.88,2.5,43.87-.75,5.03-3.29,8.85-8.18,9.62-4.16.66-10.93-2.25-10.35-8.09Z"/>
  <path class="st0" d="M503.46,528.07c1.2,7.11-2.45,12.74-7.88,14.64-5.72,2-12.1-.29-14.87-5.79s-1.69-11.86,3.72-16.3c2.97-2.44,7.44-3.16,11.7-1.62,2.92,1.05,6.58,4.54,7.34,9.07Z"/>
  <circle class="st0" cx="545.34" cy="517.43" r="12.42"/>
  <path class="st0" d="M496.11,469.88c7.42-1.38,13.25,3.75,14.44,9.56,1.48,7.17-3.27,12.69-9.34,14.18-6.84,1.67-13.1-2.56-14.46-8.52-1.6-7.01,1.8-13.81,9.36-15.22Z"/>
</g></svg>