<?xml version="1.0" encoding="UTF-8"?>
<svg id="Layer_1" xmlns="http://www.w3.org/2000/svg" version="1.1" viewBox="0 0 1000 1000"><g transform="translate(21.55,0.00) scale(1.296899)">
  <!-- Generator: Adobe Illustrator 30.5.1, SVG Export Plug-In . SVG Version: 2.1.4 Build 3)  -->
  <defs>
    <style>
      .st0 {
        fill: #2e2a6b;
      }
    </style>
  </defs>
  <g id="Generative_Object">
    <path class="st0" d="M494.82,342.26l-12.35,20.49c-12.96,21.52-18.79,46.32-17.83,71.54l1.16,15.79c-6.19-.29-11.96.73-17.64,3.24-5.87-32.9-.33-66.03,15.52-95.33l16.53-27.56c15.95-25.26,25.49-48.03,21.4-78.59-1.84-13.75-5.66-26.52-12.26-38.64l-12.96-21.31c-2.26-3.71-.46-8.55,2.77-10.97,2.91-2.18,8.59-3.08,11.44.44,8.02,9.92,14.21,20.77,19.62,32.35s8.18,23.76,9.99,36.85c8.27-8.49,16.09-15.58,25.24-22.09,13.28-9.87,28.18-16.55,44.4-19.77,5.64-.86,10.19,3.07,10.71,8,.68,6.36-3.63,9.37-9.46,10.45-20.2,3.75-40.95,19.19-55.33,33.91l-15.74,18.56c-1.59,13.67-5.45,26.41-11.56,38.62l-13.67,24.02h.02Z"/>
    <path class="st0" d="M566.78,415.72c-32.73-1.19-58,20.41-74.73,47.46-4.2-4.29-8.94-7.79-14.93-10.51,19.44-32.57,50.37-55.93,89.13-55.86,20.42-1.96,40.81-14.06,52.91-30.29,3.29-4.41,8.85-5.73,13.08-2.6,4.47,3.32,5.19,9.19,1.69,13.69-10.72,13.77-24.56,23.98-41.1,31.05l46.25,27c4.81,2.81,6.99,7.77,4.49,12.62-2.31,4.49-8.15,6.59-12.95,3.8l-56.03-32.57c-2.38-1.38-5.01-3.7-7.8-3.8h0Z"/>
    <circle class="st0" cx="462.06" cy="489.75" r="28.03"/>
    <path class="st0" d="M682.47,286.35c5.53-18.79,7.03-37.88,5.31-57.07-3.82-42.55-28.05-80.1-65.09-101.06-12.5-6.42-25.49-11.85-39.7-13.53-.26-22.94-6.6-45.03-19.4-63.81C542.55,20.01,508.24,1.24,470.89.06c-27.85-.88-54.9,7.65-76.09,25.71-10.29,8.77-18.67,19.14-24.39,31.34-.22.48-.46,1.12-.85,1.22.15-.04-4.45-9.37-7.9-14.43-10.42-15.24-24.53-26.86-41.42-34.47C304.34,2.26,287.51-.34,270.15.07c-51.56,1.24-96.42,35.57-110.56,85.18-2.78,9.75-3.7,19.73-3.88,30.56-13.65,3.25-26.93,7.63-39.39,14.84-29.16,16.86-50.8,43.83-61.01,76.09-8.23,25.95-7.93,53.71-1.04,80.04C18.71,312.84-.8,359.15.05,403.1c-1.01,38.73,13.92,75.51,40.83,103.07,11.57,11.84,24.39,21.65,39.28,29.25-9.14,61.59,28.82,125.87,86.13,147.11l11.27,4.17c12.63,18.42,32.52,31.79,53.51,39.58,54.21,20.1,118-2.83,137.73-59.17,5.85-16.73,9.41-34.69,9.42-52.85l.18-512.87c.02-38.16,27.54-70.14,63.75-79.55,38.22-9.94,77.93,3.91,102.13,34.98,14.36,18.44,21.16,41.71,20.22,65.22-.18,4.68,3.25,8.81,7.63,9.49,9.6,1.49,18.67,3.11,27.7,6.79,40.46,16.51,68.41,56.96,69.49,100.74.39,15.67-1.33,31.17-6.14,45.94-1.81,5.59-1.37,10.42,4.06,13.81,14.15,8.85,25.42,21.65,34.08,36.17,22.13,37.15,24.44,85.06,5.7,124.28-12.66,26.5-35.24,48.54-62.23,60.22-4.58,1.98-6.88,6.62-6.02,11.67,3.91,22.93,2.06,46.4-6.84,67.85-12.35,29.76-35.17,53.16-64.81,65.64-6.84,2.89-13.61,4.61-20.81,6.12-4.96,1.05-8.4,4.56-9.71,9.35-3.32,12.04-8.68,22.84-16.23,32.7-18.69,24.38-46.83,38.88-77.66,39.54-12.18.26-32.54.62-40.9-7.36-6.88-6.57-5.86-17.26.16-23.77,2.98-3.21,6.43-5.3,9.82-7.96l18.54-14.57c19.45-17.86,32.96-40.64,38.65-66.54,11.95-16.84,24.96-31.53,43.39-41.18,9.18-4.8,18.99-7.17,29.3-8.14,4.89-.45,8.31-4.57,8.21-9.21-.1-4.16-3.17-8.77-8.16-8.62-24.89.75-48.74,12.45-66.1,30.25-.47.69-.96.75-1.12.42-.21-.44-.04-1.11-.02-1.45l.75-11.74c.57-18.92-.19-37.4-1.72-56.22-7.24,2.28-18.06,1.15-18.53,2.11-.18.39.04.95.09,1.56,2.47,30.56,3.24,64.95-3.23,94.81-6.04,27.85-21.66,51.86-44.51,68.73l-12.35,9.12c-10.58,7.81-17.43,19.68-16.71,32.97.7,12.97,7.98,23.66,19.76,28.88,7.4,3.28,15.14,5.18,23.32,5.92,11.38,1.02,22.32.98,33.69-.35,29.65-3.48,56.22-17.59,75.55-40.23,10.12-11.85,17.93-25.1,22.32-40.09.37-1.24.58-1.56,1.87-1.82,10.52-2.17,20.07-5.91,29.64-10.81,24.42-12.51,44.03-31.89,57.42-55.82,15.16-27.07,20.36-56.83,16.28-87.68,49.33-24.66,80.11-73.04,79.67-128.57.99-47.48-17.06-90.22-55.32-118.64h0ZM359.84,614.83c0,15.36-3.14,30.56-7.78,44.75-10.95,33.53-42.36,53.45-77.13,54.78-18.82.73-36.57-3.45-52.88-12.8-12.62-7.22-23.16-16.54-31.67-28.28-1.91-2.64-4.36-3.95-7.45-4.89-54.25-16.47-89.04-68.48-84.66-125.59,16.11,4.62,34.28,6.28,50.68,5.81,6.01-.99,10.15-5.34,9.12-11.38,7.77-40.03,38.25-70.9,80.09-71.92,4.94-.13,8.33-4.21,8.55-8.73.21-4.22-2.77-9.41-7.99-9.42-49.14-.12-87.53,35.98-98.36,82.97-29.81-.43-53.91-9.67-76.34-28.74-12.42-10.96-22.68-23.32-30.61-37.99-24.93-46.1-17.5-106.99,16.03-146.74l14.45-13.82,37.09.18c10.15.05,19.84,2.05,29.66,4.39,13.31,3.18,25.22,8.92,35.76,17.48,13.44,10.91,19.95,27.3,18.12,44.51-.54,5.15,2.53,9.43,7.01,10.51,4.48,1.08,10.17-1.62,11.07-6.99,2.22-13.25.54-27.3-5.53-39.51-13.13-26.38-43.79-41.13-72.08-46.06l-22.72-2.53-28.53-.18c-9.43-31.62-7.37-61.44,7.82-90.77,15.8-30.51,43.64-52.75,77.95-59.87,7.53,29.54,28.87,55.01,55.48,69.42,6.03,3.5,12.4,5.29,18.96,7.45,5.36,1.78,10.77-.41,12.48-5.56,1.77-5.33-1.05-10.29-6.44-12.21l-14.02-4.99c-12-5.98-22.62-14.1-30.93-24.69-11.33-14.42-19.13-31.25-19.64-49.93-.64-23.11,8.63-45.06,23.99-62.08,21.88-24.27,54.51-36.04,86.93-31.86,27.3,3.52,51.27,19.74,64.31,43.97,5.6,10.42,9.29,22.03,9.29,34.2l-.08,517.11h0Z"/>
  </g>
</g></svg>